<?xml version="1.0" encoding="UTF-8"?>
<svg version="1.1" xmlns="http://www.w3.org/2000/svg" width="1024" height="1024">
<path d="M0 0 C1.80921714 3.08631159 2.28424116 5.78042532 1.53125 9.28515625 C-3.18886436 21.90384908 -10.47322938 32.45529978 -18.9375 42.8125 C-19.40317383 43.38258789 -19.86884766 43.95267578 -20.34863281 44.54003906 C-27.29286351 52.97198291 -34.70445984 60.80866988 -42.5234375 68.43115234 C-45.68645875 71.52099596 -48.79486992 74.66354371 -51.8828125 77.828125 C-57.78661684 83.85130093 -63.75775818 89.51086497 -70.37890625 94.7578125 C-72.87476055 96.76211687 -75.25317979 98.85117143 -77.625 101 C-88.55836673 110.8125 -88.55836673 110.8125 -91.9375 110.8125 C-91.61136719 111.4209375 -91.28523437 112.029375 -90.94921875 112.65625 C-85.85991603 122.86488082 -83.56808234 133.45211653 -84.1875 144.8125 C-84.34921317 149.63993758 -83.73920813 151.82377897 -80.5 155.4375 C-79.54287109 156.32308594 -79.54287109 156.32308594 -78.56640625 157.2265625 C-76.9375 158.8125 -76.9375 158.8125 -75.9375 161.8125 C-74.61233052 162.49525036 -73.27741904 163.15917068 -71.9375 163.8125 C-70.47602319 165.1613442 -69.0625352 166.56313768 -67.6875 168 C-63.60216453 172.17127294 -59.37122609 176.01936096 -54.9375 179.8125 C-53.82219732 180.77911855 -52.70768459 181.74664893 -51.59375 182.71484375 C-47.7137364 186.08699147 -43.82715967 189.45148485 -39.9375 192.8125 C-39.0108252 193.61324951 -39.0108252 193.61324951 -38.06542969 194.43017578 C-31.37810057 200.20234015 -24.64523629 205.89797468 -17.78515625 211.46484375 C-14.44080812 214.22198123 -11.15688963 217.0441007 -7.875 219.875 C-3.23658757 223.871725 1.45305034 227.77376273 6.2578125 231.5703125 C9.95597626 234.52678325 13.60072019 237.54604328 17.25 240.5625 C36.00324604 256.03207164 55.21344582 270.77037416 75.0625 284.8125 C75.70010254 285.26367188 76.33770508 285.71484375 76.99462891 286.1796875 C84.63803836 291.5420582 92.52798103 296.33570514 100.6875 300.875 C101.54134277 301.35275879 102.39518555 301.83051758 103.27490234 302.32275391 C104.0839502 302.76409668 104.89299805 303.20543945 105.7265625 303.66015625 C106.44279785 304.05211182 107.1590332 304.44406738 107.89697266 304.84790039 C111.10737806 306.27792426 113.71448612 307.20844972 117.16455078 306.19506836 C117.85532715 305.85096924 118.54610352 305.50687012 119.2578125 305.15234375 C120.04655762 304.77352051 120.83530273 304.39469727 121.64794922 304.00439453 C122.48600098 303.59044434 123.32405273 303.17649414 124.1875 302.75 C166.17824559 282.95293165 216.24771209 281.56812782 260.12890625 296.2109375 C263.19298322 297.36519685 265.98017991 298.82227183 268.83984375 300.4140625 C278.04181171 305.79930381 278.04181171 305.79930381 288.2734375 306.171875 C292.92945001 304.36460329 296.94999317 301.60475862 301.0625 298.8125 C303.02821431 297.55068064 304.99578086 296.29174377 306.96484375 295.03515625 C313.08100381 291.07930003 319.08266662 286.97066954 325.0625 282.8125 C325.77067871 282.32458984 326.47885742 281.83667969 327.20849609 281.33398438 C336.72126021 274.77139704 345.80776386 267.66146996 354.88916016 260.52001953 C356.94717334 258.90310826 359.00975673 257.29225877 361.07421875 255.68359375 C370.89870449 248.13163342 370.89870449 248.13163342 380.0625 239.8125 C381.19793609 238.94456013 382.3455272 238.09245313 383.5 237.25 C392.77718425 230.34216856 401.54605463 222.76802544 410.34912109 215.27148438 C411.50761347 214.28499956 412.6668127 213.29934435 413.82666016 212.31445312 C420.86648785 206.33473614 427.81295347 200.28233525 434.62109375 194.0390625 C437.33694702 191.56220432 440.10324683 189.15082173 442.8828125 186.74609375 C444.65172754 185.17689492 446.38899287 183.58602595 448.1171875 181.97265625 C448.65480713 181.47241943 449.19242676 180.97218262 449.74633789 180.45678711 C450.81446277 179.4603936 451.87889842 178.46002734 452.93920898 177.45532227 C455.31546042 175.24141614 456.94022359 173.8532588 460.0625 172.8125 C460.0625 172.1525 460.0625 171.4925 460.0625 170.8125 C461.9375 168.6875 461.9375 168.6875 464.0625 166.8125 C464.7225 166.8125 465.3825 166.8125 466.0625 166.8125 C466.0625 166.1525 466.0625 165.4925 466.0625 164.8125 C466.7225 164.8125 467.3825 164.8125 468.0625 164.8125 C468.3203125 164.22597656 468.578125 163.63945312 468.84375 163.03515625 C470.15756472 160.63912877 471.5843401 159.12338448 473.5625 157.25 C477.81950409 153.31534655 477.81950409 153.31534655 479.1875 147.84375 C479.125625 146.09578125 479.125625 146.09578125 479.0625 144.3125 C478.96927679 138.68414861 479.42340248 133.60782063 480.625 128.1171875 C481.18683328 125.54850425 481.18683328 125.54850425 481.0625 121.8125 C479.00854623 120.02845954 479.00854623 120.02845954 476.1875 118.4375 C463.58300545 110.44768414 451.97961167 100.96603297 441.0625 90.8125 C439.83736022 89.74535922 438.60821945 88.68279333 437.375 87.625 C424.8880345 76.7369752 412.57727602 65.4369477 402.234375 52.47265625 C400.32051637 50.12852365 398.32940049 47.94540011 396.25 45.75 C387.18227417 35.64440193 376.45368014 21.55076096 374.5 7.875 C375.0625 4.8125 375.0625 4.8125 376.5 2.3125 C380.53587308 -0.04996229 383.63878007 0.70489182 388.0625 1.8125 C405.42744262 6.98096324 421.74870493 18.97086314 436.0625 29.8125 C436.60132813 30.21533203 437.14015625 30.61816406 437.6953125 31.03320312 C453.57558712 42.90577811 469.90622403 55.80017491 482.6015625 71.10546875 C484.12053642 72.8803126 485.74268235 74.45587422 487.4375 76.0625 C492.23398011 80.77157272 496.32898808 86.23339715 500.0625 91.8125 C500.0625 92.4725 500.0625 93.1325 500.0625 93.8125 C501.40828125 93.19761719 501.40828125 93.19761719 502.78125 92.5703125 C518.17757742 85.80728364 533.41740126 83.64596642 549.796875 89.04296875 C563.47137746 94.51570417 574.79757815 103.63818196 581.4375 117 C587.36942144 131.15044948 588.08812472 144.08915035 584.0625 158.8125 C584.88621094 159.0290625 585.70992187 159.245625 586.55859375 159.46875 C590.94631731 161.15144443 594.34405824 163.56026623 598.125 166.3125 C598.87088379 166.84786377 599.61676758 167.38322754 600.38525391 167.93481445 C610.90537797 175.52618098 621.09599005 183.50707504 631.0625 191.8125 C632.06023438 192.62332031 633.05796875 193.43414062 634.0859375 194.26953125 C685.75727944 236.82424236 685.75727944 236.82424236 688.265625 260.75 C688.28109375 261.430625 688.2965625 262.11125 688.3125 262.8125 C688.35117188 263.8334375 688.35117188 263.8334375 688.390625 264.875 C687.95620296 267.44015869 687.1346566 268.27479103 685.0625 269.8125 C664.60206663 272.45255592 639.85466703 253.20258478 624.25 241.25 C621.50643663 239.12202327 618.77982655 236.97385001 616.0625 234.8125 C615.5169043 234.38018066 614.97130859 233.94786133 614.40917969 233.50244141 C607.72923187 228.18914096 601.34858881 222.58318475 595.0625 216.8125 C593.99612304 215.83981164 592.92971524 214.86715708 591.86328125 213.89453125 C576.79005447 200.10833797 576.79005447 200.10833797 573.0625 195.8125 C573.0625 195.1525 573.0625 194.4925 573.0625 193.8125 C572.4025 193.8125 571.7425 193.8125 571.0625 193.8125 C569.3359375 192.0625 569.3359375 192.0625 567.4375 189.8125 C566.80585937 189.07 566.17421875 188.3275 565.5234375 187.5625 C565.04132812 186.985 564.55921875 186.4075 564.0625 185.8125 C559.85598901 186.51358517 556.06381474 187.85439378 552.0625 189.3125 C539.47328629 193.62875794 527.99132077 192.82069938 515.0625 190.8125 C514.81177734 191.38991943 514.56105469 191.96733887 514.30273438 192.56225586 C512.89751053 195.11185195 511.30104947 196.78499553 509.21875 198.81640625 C508.46722656 199.55697266 507.71570313 200.29753906 506.94140625 201.06054688 C506.15636719 201.82431641 505.37132812 202.58808594 504.5625 203.375 C503.00818662 204.89485816 501.45600712 206.41690247 499.90625 207.94140625 C499.21724609 208.61244385 498.52824219 209.28348145 497.81835938 209.97485352 C495.88233589 211.8945133 495.88233589 211.8945133 494.0625 214.8125 C493.4025 214.8125 492.7425 214.8125 492.0625 214.8125 C491.794375 215.451875 491.52625 216.09125 491.25 216.75 C490.0625 218.8125 490.0625 218.8125 487.0625 219.8125 C486.35488146 221.12455877 485.69155607 222.46101538 485.0625 223.8125 C483.73449707 225.37428284 483.73449707 225.37428284 482.20507812 226.88110352 C481.63108276 227.45172012 481.0570874 228.02233673 480.46569824 228.61024475 C479.84795532 229.21452805 479.2302124 229.81881134 478.59375 230.44140625 C477.95763794 231.07231674 477.32152588 231.70322723 476.6661377 232.35325623 C474.63628859 234.36531848 472.59987626 236.3705622 470.5625 238.375 C468.52600162 240.38386121 466.490985 242.39416774 464.4588623 244.40745544 C463.19509395 245.65898907 461.92866167 246.90783972 460.65930176 248.15370178 C460.0853064 248.72116623 459.51131104 249.28863068 458.91992188 249.87329102 C458.41521362 250.36974625 457.91050537 250.86620148 457.39050293 251.37770081 C455.8350567 252.98239681 455.8350567 252.98239681 454.0625 255.8125 C453.4025 255.8125 452.7425 255.8125 452.0625 255.8125 C451.80855469 256.39515625 451.55460938 256.9778125 451.29296875 257.578125 C449.92929667 260.05438033 448.42024797 261.61770626 446.375 263.5625 C443.08506928 266.76988765 440.02769614 270.07525006 437.03515625 273.55859375 C435.09809975 275.77182465 433.11209334 277.93397968 431.11132812 280.08959961 C426.4042819 285.16549359 421.89140573 290.33750619 417.55078125 295.734375 C415.69189514 298.03390759 413.81635224 300.31163548 411.91796875 302.578125 C403.55125036 312.58856191 395.60243985 322.85752116 387.86767578 333.36328125 C386.14802505 335.69646169 384.41645907 338.02037789 382.68359375 340.34375 C374.98196222 350.75312997 368.05262582 361.5450268 361.40966797 372.65820312 C360.21554373 374.56776316 358.92973484 376.32046912 357.56640625 378.109375 C355.72911033 380.6971179 355.72911033 380.6971179 356.671875 383.39453125 C357.13078125 384.19246094 357.5896875 384.99039062 358.0625 385.8125 C358.41828125 386.55886719 358.7740625 387.30523437 359.140625 388.07421875 C359.52734375 388.87472656 359.9140625 389.67523438 360.3125 390.5 C377.73015108 428.88048777 379.64409105 475.24583316 365.0625 514.8125 C359.99129373 528.2772069 359.99129373 528.2772069 357.82421875 531.859375 C356.63158038 534.91742209 357.17161591 536.64654827 358.0625 539.8125 C359.60222973 543.16025699 361.37356663 546.35661019 363.1875 549.5625 C363.69104004 550.46282959 364.19458008 551.36315918 364.71337891 552.29077148 C367.60140014 557.39788705 370.56863862 562.35024016 374.0625 567.0703125 C375.7844443 569.43125956 377.43126933 571.81844389 379.0625 574.2421875 C384.39702306 582.16675673 389.7180713 589.92982413 395.8984375 597.22265625 C398.31974369 600.12035662 400.59865214 603.11373999 402.875 606.125 C407.82987332 612.63369998 413.11142191 618.82811324 418.48291016 624.99462891 C420.09360054 626.84829206 421.69431728 628.7101671 423.29296875 630.57421875 C429.48647231 637.78283819 435.7990632 644.85500164 442.27734375 651.80859375 C444.84701405 654.56893694 447.36548962 657.37226247 449.875 660.1875 C452.90893092 663.57675616 456.03552269 666.81895227 459.28379822 670.00149536 C461.03385602 671.78333582 462.66034179 673.62532136 464.28344727 675.52294922 C467.99598925 679.78968677 471.90743894 683.81889379 475.90234375 687.8203125 C476.62813126 688.54942841 477.35391876 689.27854431 478.10169983 690.02975464 C479.6256563 691.5587379 481.15093744 693.0864019 482.67749023 694.61279297 C484.99557242 696.93306823 487.30552342 699.26123896 489.61523438 701.58984375 C491.10628019 703.08382318 492.59780086 704.57732886 494.08984375 706.0703125 C494.77030258 706.75795685 495.45076141 707.4456012 496.15184021 708.15408325 C502.59931754 714.623504 502.59931754 714.623504 510.0625 719.8125 C513.90754792 719.86005942 513.90754792 719.86005942 517.6875 718.625 C531.44899177 715.31112612 542.53130172 717.82484252 555.0625 723.8125 C556.0525 724.4725 557.0425 725.1325 558.0625 725.8125 C558.27777344 725.14476562 558.49304688 724.47703125 558.71484375 723.7890625 C560.50920132 719.82587273 562.98496462 716.62718702 565.625 713.1875 C566.16294189 712.47964355 566.70088379 711.77178711 567.25512695 711.04248047 C574.46455856 701.60199166 582.03097929 692.56364497 590.0625 683.8125 C591.01181732 682.76962096 591.96103111 681.72664769 592.91015625 680.68359375 C601.22933652 671.57217508 609.65733974 662.55386895 619.05859375 654.5390625 C621.31483386 652.59508954 623.49613893 650.57926482 625.6875 648.5625 C659.88903061 617.8125 659.88903061 617.8125 678.0625 617.8125 C680.4375 618.875 680.4375 618.875 682.0625 620.8125 C684.53668178 627.57526352 681.34635272 634.03295885 678.5 640.1953125 C671.45175546 654.33568617 661.96892844 666.98050101 651.61328125 678.8515625 C648.47739173 682.49169153 645.53907913 686.26620422 642.62109375 690.08203125 C642.10675781 690.65308594 641.59242188 691.22414063 641.0625 691.8125 C640.4025 691.8125 639.7425 691.8125 639.0625 691.8125 C638.72049561 692.64237427 638.72049561 692.64237427 638.37158203 693.48901367 C636.68364486 696.484929 634.55464464 698.56192522 632.1171875 700.98828125 C631.38412888 701.72065254 631.38412888 701.72065254 630.63626099 702.46781921 C629.60134333 703.49972198 628.56400249 704.52919944 627.52441406 705.55639648 C625.95849331 707.10424892 624.40053642 708.6597635 622.84375 710.21679688 C617.93280366 715.11002693 612.96905235 719.89978575 607.69921875 724.40991211 C605.61820804 726.19323647 603.62781152 728.06719964 601.625 729.9375 C585.32555609 744.68097195 585.32555609 744.68097195 577.0625 748.8125 C577.37432069 750.22931634 577.68698737 751.64594651 578 753.0625 C578.17402344 753.85140625 578.34804688 754.6403125 578.52734375 755.453125 C578.84631875 756.85940895 579.19730036 758.25992246 579.61328125 759.640625 C582.46869456 773.4459276 579.08870963 787.63921778 572.18359375 799.640625 C564.23878339 811.52126222 553.29609495 818.91531787 539.640625 822.78125 C526.90976208 825.14111727 515.12343016 823.08816209 503.0625 818.8125 C502.0725 818.4825 501.0825 818.1525 500.0625 817.8125 C499.85625 818.46605469 499.65 819.11960937 499.4375 819.79296875 C497.52264229 823.99803981 494.84441572 827.45405225 492.0625 831.125 C491.5159375 831.86556641 490.969375 832.60613281 490.40625 833.36914062 C489.8803125 834.06845703 489.354375 834.76777344 488.8125 835.48828125 C488.33296875 836.12677002 487.8534375 836.76525879 487.359375 837.4230957 C486.93140625 837.88159912 486.5034375 838.34010254 486.0625 838.8125 C485.4025 838.8125 484.7425 838.8125 484.0625 838.8125 C483.82144531 839.38226562 483.58039062 839.95203125 483.33203125 840.5390625 C481.81521334 843.25533334 479.99487093 845.03695137 477.75 847.1875 C475.18836067 849.68387463 472.70903055 852.1232556 470.5 854.9375 C468.03475357 857.84522655 465.4489228 860.17388833 462.5546875 862.63671875 C460.00203659 864.86528702 457.53131935 867.16349911 455.06298828 869.484375 C414.04798946 908.01395105 414.04798946 908.01395105 392.3125 910.1875 C388.76081619 909.77769033 387.3578342 909.54924462 385.0625 906.8125 C382.70744473 896.2083167 388.14623818 886.7392687 393.625 877.9375 C402.60527775 863.95653294 412.98722572 851.17120518 424.0625 838.8125 C424.77188721 838.01634277 424.77188721 838.01634277 425.49560547 837.20410156 C435.05692293 826.49895592 445.02457425 816.01077146 456.0625 806.8125 C456.99835937 806.02230469 457.93421875 805.23210938 458.8984375 804.41796875 C464.84765271 799.41064169 470.87914932 794.52808562 477.0625 789.8125 C476.918125 789.03648437 476.77375 788.26046875 476.625 787.4609375 C475.20038139 779.17044866 474.83575579 771.21463283 475.0625 762.8125 C474.4025 762.8125 473.7425 762.8125 473.0625 762.8125 C471.8359375 761.52734375 471.8359375 761.52734375 470.4375 759.75 C468.27526429 757.14183558 466.08879319 754.87128115 463.5 752.6875 C459.64756871 749.41921856 456.10917931 745.90381715 452.5625 742.3125 C448.54240297 738.25128835 444.50022465 734.30953941 440.140625 730.609375 C437.98155055 728.74250611 435.8868766 726.81332605 433.79516602 724.87158203 C428.63024261 720.07797165 423.33650912 715.54446136 417.84375 711.125 C414.82228849 708.61277358 411.93830707 705.98827102 409.0625 703.3125 C404.48666383 699.06041544 399.77620942 695.0458486 394.91015625 691.125 C391.75628495 688.56383153 388.65659063 685.94522703 385.5625 683.3125 C380.70745675 679.18624754 375.80097669 675.13106043 370.85546875 671.11328125 C368.36981828 669.06566149 365.92165015 666.98023689 363.48120117 664.87915039 C356.26163911 658.68013746 348.73931826 652.96797174 341.08447266 647.31982422 C339.12658054 645.86027025 337.19137341 644.3755262 335.26171875 642.87890625 C311.33379618 623.20624672 311.33379618 623.20624672 283.5859375 611.421875 C280.14979548 611.95378553 277.31672098 613.38194029 274.25 614.9375 C232.27749976 635.21750687 184.36776044 637.21105615 140.375 622 C139.69155518 621.7642627 139.00811035 621.52852539 138.30395508 621.28564453 C134.54542439 619.9201176 131.09319605 618.33090755 127.60546875 616.37109375 C119.18993399 611.51085405 119.18993399 611.51085405 109.8515625 611.62890625 C105.25415343 613.47121266 101.19028822 616.1066949 97.0625 618.8125 C95.43782844 619.81514689 93.81147206 620.81506796 92.18359375 621.8125 C75.73905685 632.06800978 60.15023852 643.66699464 45.0625 655.8125 C44.42602539 656.32280762 43.78955078 656.83311523 43.13378906 657.35888672 C35.31027423 663.63793511 27.58915287 670.01822694 19.99780273 676.57617188 C16.58295683 679.52311705 13.13095281 682.41110901 9.625 685.25 C3.93701891 689.87044212 -1.58314851 694.67319222 -7.109375 699.484375 C-10.72484535 702.63191794 -14.35852083 705.75761104 -18 708.875 C-18.57266602 709.36589111 -19.14533203 709.85678223 -19.73535156 710.36254883 C-22.64055808 712.8516152 -25.55089004 715.33437089 -28.46875 717.80859375 C-34.92705823 723.29615006 -41.26202984 728.88189384 -47.46069336 734.66186523 C-50.28167781 737.29180256 -53.12928886 739.87103927 -56.0625 742.375 C-59.43738552 745.30905465 -62.67635371 748.37594421 -65.875 751.5 C-66.81214844 752.41136719 -67.74929687 753.32273437 -68.71484375 754.26171875 C-72.99062208 759.16871919 -72.30721412 764.98027106 -72.6328125 771.27734375 C-72.89267837 774.29245421 -73.47933224 776.68755692 -74.3125 779.5625 C-74.71065962 781.70131857 -74.71065962 781.70131857 -73.9375 783.8125 C-70.53828877 787.27231305 -66.75083319 789.92019497 -62.72753906 792.60693359 C-60.12654149 794.35866927 -57.62918122 796.23824087 -55.125 798.125 C-54.15046875 798.85460937 -53.1759375 799.58421875 -52.171875 800.3359375 C-42.46599333 807.70972841 -33.07670373 815.46498347 -24.171875 823.7890625 C-21.99639957 825.83585804 -21.99639957 825.83585804 -19.640625 827.4609375 C-19.07859375 827.90695312 -18.5165625 828.35296875 -17.9375 828.8125 C-17.9375 829.4725 -17.9375 830.1325 -17.9375 830.8125 C-17.37675781 831.04710937 -16.81601562 831.28171875 -16.23828125 831.5234375 C-8.63307327 835.7844199 -2.48068075 844.13872991 3.0625 850.8125 C3.50352051 851.33972656 3.94454102 851.86695313 4.39892578 852.41015625 C26.92249291 879.4592438 26.92249291 879.4592438 27.5 892.1875 C27.0625 895.8125 27.0625 895.8125 25.9375 897.75 C21.76467297 900.11460199 18.22093046 900.05597768 13.6875 898.875 C0.96001008 894.63886393 -10.35987699 887.55814734 -21.296875 879.94042969 C-24.30979347 877.86904824 -27.40775196 875.92526856 -30.49609375 873.96875 C-31.20958984 873.39640625 -31.20958984 873.39640625 -31.9375 872.8125 C-31.9375 872.1525 -31.9375 871.4925 -31.9375 870.8125 C-32.63230469 870.58949219 -33.32710937 870.36648438 -34.04296875 870.13671875 C-37.61693937 868.50166336 -40.32626391 866.19430469 -43.25 863.625 C-43.82468018 863.12887207 -44.39936035 862.63274414 -44.99145508 862.12158203 C-46.64547159 860.69121964 -48.29203201 859.25267827 -49.9375 857.8125 C-50.68773437 857.16410156 -51.43796875 856.51570312 -52.2109375 855.84765625 C-56.71538687 851.94073588 -61.13201012 847.93768708 -65.54296875 843.92578125 C-67.22173586 842.44419396 -68.96051655 841.02918607 -70.73828125 839.66796875 C-71.46402344 839.05566406 -72.18976563 838.44335938 -72.9375 837.8125 C-72.9375 837.1525 -72.9375 836.4925 -72.9375 835.8125 C-73.5975 835.8125 -74.2575 835.8125 -74.9375 835.8125 C-74.9375 835.1525 -74.9375 834.4925 -74.9375 833.8125 C-75.53175781 833.5546875 -76.12601563 833.296875 -76.73828125 833.03125 C-79.13052503 831.70553053 -80.38531639 830.40871136 -82.125 828.3125 C-85.66329468 824.12322036 -89.32437877 820.0630305 -93.01953125 816.01171875 C-94.9375 813.8125 -94.9375 813.8125 -96.9375 810.8125 C-97.5975 811.1425 -98.2575 811.4725 -98.9375 811.8125 C-98.9375 811.1525 -98.9375 810.4925 -98.9375 809.8125 C-100.31421875 810.33650391 -100.31421875 810.33650391 -101.71875 810.87109375 C-114.14411777 815.47839923 -114.14411777 815.47839923 -120.9375 815.8125 C-122.17693359 815.88791016 -122.17693359 815.88791016 -123.44140625 815.96484375 C-137.45590394 816.4632256 -150.55440328 811.67014155 -161.25 802.625 C-172.3586481 791.96140992 -178.87372704 777.2625835 -179.25 761.875 C-179.20372991 753.82400383 -177.64456433 744.75775804 -173.7421875 737.62890625 C-172.68361245 735.23940431 -173.05399092 734.23945367 -173.9375 731.8125 C-176.26004944 730.02201465 -178.53510781 728.44401081 -181 726.875 C-194.34729847 718.04138957 -206.39036427 707.56580524 -218.46435547 697.09033203 C-219.77699914 695.95172133 -221.09332481 694.81735858 -222.41015625 693.68359375 C-230.54095467 686.64703362 -237.69974662 678.74286136 -244.9375 670.8125 C-246.09378906 669.54792969 -246.09378906 669.54792969 -247.2734375 668.2578125 C-247.90507812 667.55398438 -248.53671875 666.85015625 -249.1875 666.125 C-249.72890625 665.52300781 -250.2703125 664.92101562 -250.828125 664.30078125 C-251.9375 662.8125 -251.9375 662.8125 -251.9375 660.8125 C-252.5975 660.8125 -253.2575 660.8125 -253.9375 660.8125 C-255.8477317 658.56192204 -257.62268443 656.30763149 -259.375 653.9375 C-259.90343506 653.22585693 -260.43187012 652.51421387 -260.97631836 651.78100586 C-264.87231914 646.44856855 -268.51925929 640.98657688 -272 635.375 C-272.45238037 634.65521973 -272.90476074 633.93543945 -273.37084961 633.19384766 C-276.87351022 627.41422551 -280.0675168 621.32295371 -279.8125 614.4375 C-278.87740179 611.63220538 -278.20895535 610.63488602 -275.9375 608.8125 C-266.26064429 606.61591312 -257.38341688 612.33497967 -249.5 617.1875 C-235.38946429 626.11398795 -222.16857096 636.24882867 -209.66845703 647.30078125 C-207.78709615 648.94385411 -205.87958237 650.55222229 -203.96484375 652.15625 C-203.31233643 652.70522949 -202.6598291 653.25420898 -201.98754883 653.81982422 C-200.72895408 654.87745882 -199.46719153 655.9313381 -198.2019043 656.98095703 C-196.74295318 658.21514684 -195.33465758 659.50876937 -193.9375 660.8125 C-193.9375 661.4725 -193.9375 662.1325 -193.9375 662.8125 C-193.37675781 663.04710937 -192.81601563 663.28171875 -192.23828125 663.5234375 C-185.30796339 667.4062981 -179.83662005 674.76718757 -174.70703125 680.76171875 C-172.69963977 683.08816583 -170.63283362 685.35442686 -168.5625 687.625 C-161.59770377 695.34916072 -155.07294634 703.41535972 -148.9375 711.8125 C-148.07898438 711.66941406 -147.22046875 711.52632812 -146.3359375 711.37890625 C-145.21445313 711.19199219 -144.09296875 711.00507812 -142.9375 710.8125 C-141.89851562 710.63589844 -140.85953125 710.45929687 -139.7890625 710.27734375 C-138.72429687 710.10332031 -137.65953125 709.92929687 -136.5625 709.75 C-135.50289062 709.57339844 -134.44328125 709.39679687 -133.3515625 709.21484375 C-126.67609541 708.42814683 -121.61518072 708.7445015 -115.23828125 710.64160156 C-108.04533373 712.97556177 -108.04533373 712.97556177 -101.0625 711.296875 C-99.10647473 709.24017195 -97.55146354 707.13737606 -95.9375 704.8125 C-95.2775 704.8125 -94.6175 704.8125 -93.9375 704.8125 C-93.9375 704.1525 -93.9375 703.4925 -93.9375 702.8125 C-92.58203125 701.48046875 -92.58203125 701.48046875 -90.75 700 C-87.63363225 697.41235732 -84.77106814 694.71353405 -81.9375 691.8125 C-81.21046875 691.09578125 -80.4834375 690.3790625 -79.734375 689.640625 C-78.93515625 688.85171875 -78.1359375 688.0628125 -77.3125 687.25 C-76.55710938 686.50621094 -75.80171875 685.76242187 -75.0234375 684.99609375 C-72.90895479 682.88139232 -72.90895479 682.88139232 -71.2890625 680.53515625 C-70.62003906 679.68244141 -70.62003906 679.68244141 -69.9375 678.8125 C-69.2775 678.8125 -68.6175 678.8125 -67.9375 678.8125 C-67.69386719 678.24015625 -67.45023438 677.6678125 -67.19921875 677.078125 C-65.71232702 674.40816462 -63.95666092 672.67420993 -61.75 670.5625 C-58.30500112 667.19405665 -55.07442393 663.75405507 -51.94140625 660.09765625 C-49.88069219 657.74771916 -47.76275813 655.46216874 -45.62963867 653.17822266 C-40.58242597 647.77324678 -35.78092492 642.26189205 -31.1484375 636.4921875 C-28.8281505 633.67996685 -26.40678866 630.99452737 -23.9375 628.3125 C-19.93075791 623.94878242 -16.11944605 619.47926874 -12.40234375 614.8671875 C-10.59664825 612.6293842 -8.77770688 610.40768101 -6.94140625 608.1953125 C21.52102207 574.63943124 21.52102207 574.63943124 41.0625 535.8125 C40.42932634 532.57800792 40.42932634 532.57800792 39.0625 529.8125 C38.4025 529.4825 37.7425 529.1525 37.0625 528.8125 C36.31420898 527.06030273 36.31420898 527.06030273 35.62109375 524.80859375 C35.36440918 523.99116699 35.10772461 523.17374023 34.84326172 522.33154297 C34.58561035 521.50025879 34.32795898 520.66897461 34.0625 519.8125 C33.57601524 518.36528028 33.08777337 516.91864987 32.59765625 515.47265625 C22.89835116 485.74542153 20.35679475 452.50844385 27.0625 421.8125 C27.3409375 420.53375 27.619375 419.255 27.90625 417.9375 C30.07658752 409.10647148 33.17062621 400.6240485 36.37890625 392.125 C36.65307373 391.39200684 36.92724121 390.65901367 37.2097168 389.90380859 C38.0625 387.8125 38.0625 387.8125 39.06567383 385.92822266 C40.16380386 383.9612869 40.16380386 383.9612869 41.0625 380.8125 C40.07645697 378.1244751 39.21811071 376.47745615 37.625 374.1875 C37.22337646 373.56721924 36.82175293 372.94693848 36.40795898 372.30786133 C35.500383 370.91640218 34.57965569 369.53346388 33.6484375 368.15771484 C31.87465595 365.53472445 30.13989489 362.88795881 28.40625 360.23828125 C25.95286357 356.50741243 23.49154319 352.7823558 21.00390625 349.07421875 C20.48513916 348.30037842 19.96637207 347.52653809 19.43188477 346.72924805 C18.066082 344.70654606 18.066082 344.70654606 16.0625 342.8125 C15.21024759 341.554276 14.38007597 340.28102746 13.5625 339 C7.06778924 329.14704856 -0.51461911 319.97420535 -7.9375 310.8125 C-8.98164062 309.52279297 -8.98164062 309.52279297 -10.046875 308.20703125 C-17.99052727 298.44647978 -26.02293684 288.75628666 -34.57421875 279.51953125 C-35.9375 277.8125 -35.9375 277.8125 -35.9375 275.8125 C-36.9275 275.4825 -37.9175 275.1525 -38.9375 274.8125 C-40.76171875 273.03515625 -40.76171875 273.03515625 -42.625 270.875 C-43.55892578 269.80958984 -43.55892578 269.80958984 -44.51171875 268.72265625 C-45.9375 266.8125 -45.9375 266.8125 -45.9375 264.8125 C-46.5975 264.8125 -47.2575 264.8125 -47.9375 264.8125 C-47.9375 264.1525 -47.9375 263.4925 -47.9375 262.8125 C-48.5975 262.8125 -49.2575 262.8125 -49.9375 262.8125 C-51.27734375 261.484375 -51.27734375 261.484375 -52.875 259.5625 C-60.4803773 250.63990272 -68.43619601 242.13815193 -76.87353516 234.0012207 C-78.26437453 232.64102121 -79.60597618 231.23081631 -80.9375 229.8125 C-80.9375 229.1525 -80.9375 228.4925 -80.9375 227.8125 C-81.5975 227.8125 -82.2575 227.8125 -82.9375 227.8125 C-82.9375 227.1525 -82.9375 226.4925 -82.9375 225.8125 C-83.5975 225.8125 -84.2575 225.8125 -84.9375 225.8125 C-84.9375 225.1525 -84.9375 224.4925 -84.9375 223.8125 C-86.2575 223.1525 -87.5775 222.4925 -88.9375 221.8125 C-88.9375 221.1525 -88.9375 220.4925 -88.9375 219.8125 C-89.51854492 219.55815186 -90.09958984 219.30380371 -90.69824219 219.04174805 C-93.17929642 217.67976505 -94.79268103 216.1693556 -96.765625 214.14453125 C-97.84263672 213.05108398 -97.84263672 213.05108398 -98.94140625 211.93554688 C-99.68261719 211.17306641 -100.42382812 210.41058594 -101.1875 209.625 C-106.07086725 204.62453602 -110.98279695 199.77091457 -116.29980469 195.22924805 C-117.55792497 194.14086522 -118.7611829 192.9888171 -119.9375 191.8125 C-122.17613003 191.79414172 -122.17613003 191.79414172 -124.75 192.1875 C-139.71923884 193.76423387 -152.17491647 191.95462488 -165.9375 185.8125 C-166.16695313 186.51375 -166.39640625 187.215 -166.6328125 187.9375 C-168.19577814 191.38163986 -170.34722816 193.99301749 -172.8125 196.8125 C-173.2971875 197.37573975 -173.781875 197.93897949 -174.28125 198.51928711 C-179.21140177 204.20871386 -184.32548292 209.72575704 -189.46435547 215.22607422 C-190.90523668 216.77775571 -192.33212662 218.34096969 -193.75390625 219.91015625 C-202.34089434 229.38608223 -211.14330513 238.56665212 -220.9375 246.8125 C-222.2059375 247.91464844 -222.2059375 247.91464844 -223.5 249.0390625 C-255.83836277 276.71999802 -255.83836277 276.71999802 -271.6875 277.625 C-274.94451991 277.30094574 -275.90572281 276.83614814 -278.625 274.8125 C-280.33015883 270.9149941 -279.83311771 267.84991701 -278.9375 263.8125 C-277.9020315 261.17676199 -276.86238907 258.80340017 -275.5625 256.3125 C-275.03619995 255.28600342 -275.03619995 255.28600342 -274.49926758 254.23876953 C-265.87806914 237.906813 -253.98281618 222.97833907 -241.421875 209.5078125 C-239.46548563 207.3853146 -237.5712155 205.23648495 -235.6875 203.05078125 C-231.69907715 198.47816291 -227.47896013 194.16234647 -223.1875 189.875 C-222.39690186 189.08448242 -221.60630371 188.29396484 -220.79174805 187.47949219 C-215.10502189 181.84796568 -209.26133434 176.72005894 -202.9375 171.8125 C-201.70127567 170.75821998 -200.47138404 169.69643734 -199.25 168.625 C-195.62880217 165.4872145 -191.80136826 162.64265805 -187.9375 159.8125 C-188.14246094 159.08546875 -188.34742188 158.3584375 -188.55859375 157.609375 C-192.6547084 142.32243993 -193.12675024 128.63110086 -185.9375 114.0625 C-178.23727753 100.88296133 -166.44929336 91.66961831 -151.7734375 87.50390625 C-147.04780825 86.65213804 -142.48209815 86.41661516 -137.6875 86.375 C-136.86008301 86.36484863 -136.03266602 86.35469727 -135.18017578 86.34423828 C-129.30840298 86.42746764 -124.39002324 87.66341989 -118.9375 89.8125 C-118.69257813 89.09449219 -118.44765625 88.37648438 -118.1953125 87.63671875 C-116.78295985 84.46550456 -115.05552713 82.27052155 -112.8125 79.625 C-109.07874469 75.17690886 -105.4384509 70.67482615 -101.859375 66.1015625 C-99.68624066 63.51323583 -97.34861715 61.18043296 -94.9375 58.8125 C-94.03773438 57.88953125 -93.13796875 56.9665625 -92.2109375 56.015625 C-86.62976165 50.30969797 -80.95295295 44.97389595 -74.6875 40.0078125 C-71.87292965 37.76095379 -69.16260985 35.41669212 -66.4375 33.0625 C-15.41316448 -9.44677823 -15.41316448 -9.44677823 0 0 Z M-146.9375 129.8125 C-150.01371812 133.48411517 -150.77072817 137.0595029 -150.9375 141.8125 C-149.2906042 146.47870475 -147.18575012 149.26354993 -142.9375 151.8125 C-137.21201679 153.31426609 -133.77744737 153.00836351 -128.63671875 150.0390625 C-126.0995638 148.20764491 -125.01065356 146.7636723 -123.9375 143.8125 C-123.40493359 138.22055268 -123.70866734 134.60007946 -126.9375 129.8125 C-133.58147392 124.4604099 -140.29888751 125.09204191 -146.9375 129.8125 Z M521.1875 130.3125 C518.25810483 134.21836022 518.50750491 139.17432672 519.0625 143.8125 C520.93152495 147.8495939 522.4869225 149.45135333 526.25 151.8125 C531.11432942 153.08838969 534.43203699 152.69416755 539.0625 150.8125 C542.09901872 148.72489338 543.63528441 147.2596928 544.6875 143.6953125 C545.51780706 138.55778757 545.01848603 135.24647904 542.0625 130.8125 C539.24233512 127.50044589 536.59051572 126.78789072 532.4140625 125.96484375 C527.8887469 125.67167546 524.69959667 127.50282267 521.1875 130.3125 Z M-134.9375 751.8125 C-137.90635637 755.0040206 -139.16962388 757.51603149 -139.375 761.8125 C-139.15098765 765.71778201 -138.14799796 768.53486509 -135.9375 771.8125 C-132.20016502 774.82313095 -128.70306813 775.64817006 -123.9375 775.8125 C-119.61023212 774.5656601 -117.47585698 773.450028 -114.5625 770 C-112.53703295 766.02696848 -111.17209006 763.176266 -112.6015625 758.76171875 C-114.56304671 754.40020711 -116.3569037 751.66655088 -120.9375 749.8125 C-126.19510247 748.17680145 -130.26844564 749.09054065 -134.9375 751.8125 Z M515.25 762.6875 C513.03687932 766.64782122 512.76279116 769.69929576 513.9375 774.0625 C514.59425944 775.66791197 515.28678349 777.26106697 516.0625 778.8125 C516.7225 778.8125 517.3825 778.8125 518.0625 778.8125 C518.0625 779.4725 518.0625 780.1325 518.0625 780.8125 C522.67088368 783.21269984 525.95280847 784.36177052 531.1328125 783.46484375 C535.02890775 782.14774272 538.20962662 779.51824676 540.0625 775.8125 C540.48304103 771.24316001 540.62375534 767.13145005 538.8125 762.875 C535.29264161 758.72659546 532.21755948 757.0158075 526.75 756.5 C521.59769117 756.93663634 518.78810322 759.02739322 515.25 762.6875 Z " fill="#55C136" transform="translate(308.9375,32.1875)"/>
<path d="M0 0 C0.66 0.33 1.32 0.66 2 1 C-2.35769796 5.46200456 -6.78739655 9.74317469 -11.51953125 13.8046875 C-15.67291439 17.4805951 -19.69122612 21.30317976 -23.72094727 25.11376953 C-26.70418778 27.92075395 -29.63064398 30.65166095 -33 33 C-31.33444418 28.66744656 -28.12566065 25.86445887 -24.875 22.6875 C-24.28678467 22.10645508 -23.69856934 21.52541016 -23.0925293 20.92675781 C-19.49308663 17.39410893 -15.83184352 13.9666582 -11.98828125 10.69921875 C-7.91653181 7.21943288 -3.97364597 3.59093827 0 0 Z " fill="#53B92F" transform="translate(940,676)"/>
<path d="M0 0 C0.66 0.66 1.32 1.32 2 2 C-1.63 5.63 -5.26 9.26 -9 13 C-9 8.86218946 -7.28490393 7.79080004 -4.5 4.8125 C-3.6646875 3.91144531 -2.829375 3.01039063 -1.96875 2.08203125 C-0.99421875 1.05142578 -0.99421875 1.05142578 0 0 Z " fill="#53B92F" transform="translate(734,870)"/>
<path d="M0 0 C0.33 0.66 0.66 1.32 1 2 C-0.28715972 3.64936048 -1.57987019 5.29439047 -2.875 6.9375 C-3.95394531 8.31228516 -3.95394531 8.31228516 -5.0546875 9.71484375 C-7 12 -7 12 -9 13 C-7.50923566 9.7173068 -5.61379679 7.06922559 -3.375 4.25 C-2.74335937 3.45078125 -2.11171875 2.6515625 -1.4609375 1.828125 C-0.97882812 1.22484375 -0.49671875 0.6215625 0 0 Z " fill="#53B82F" transform="translate(882,736)"/>
<path d="M0 0 C-3.58721171 1.56079778 -6.958386 2.47490848 -10.8125 3.125 C-11.78832031 3.29257812 -12.76414062 3.46015625 -13.76953125 3.6328125 C-14.87361328 3.81457031 -14.87361328 3.81457031 -16 4 C-13.71185277 1.71185277 -12.19248378 1.24548839 -9.125 0.3125 C-8.26132812 0.04050781 -7.39765625 -0.23148437 -6.5078125 -0.51171875 C-3.91305068 -1.01692938 -2.469215 -0.85561171 0 0 Z " fill="#52B930" transform="translate(467,325)"/>
<path d="M0 0 C0.66 0 1.32 0 2 0 C0.61811547 3.21043882 -0.92421903 5.04936365 -3.625 7.25 C-4.57246094 8.03117187 -4.57246094 8.03117187 -5.5390625 8.828125 C-6.02117188 9.21484375 -6.50328125 9.6015625 -7 10 C-5.15014033 6.06048404 -2.92434659 3.21678125 0 0 Z " fill="#53B830" transform="translate(759,288)"/>
<path d="M0 0 C1 3 1 3 1 5 C-0.96147874 6.38938077 -2.96166576 7.7260411 -5 9 C-3.7508258 5.54074837 -2.32472205 2.85306797 0 0 Z " fill="#53B730" transform="translate(47,267)"/>
<path d="M0 0 C4 1 4 1 4 1 Z " fill="#57BD38" transform="translate(472,320)"/>
<path d="" fill="#5AC038" transform="translate(0,0)"/>
<path d="" fill="#55BA35" transform="translate(0,0)"/>
<path d="M0 0 C0.66 0.66 1.32 1.32 2 2 C1.34 2 0.68 2 0 2 C0 1.34 0 0.68 0 0 Z " fill="#5AC139" transform="translate(848,162)"/>
<path d="M0 0 C2 1 2 1 2 1 Z " fill="#53B235" transform="translate(306,925)"/>
<path d="M0 0 C2 1 2 1 2 1 Z " fill="#57BB37" transform="translate(197,847)"/>
<path d="" fill="#57B936" transform="translate(0,0)"/>
<path d="" fill="#5AC139" transform="translate(0,0)"/>
<path d="M0 0 C2 1 2 1 2 1 Z " fill="#55BC38" transform="translate(840,791)"/>
<path d="M0 0 C2 1 2 1 2 1 Z " fill="#59BF3A" transform="translate(180,783)"/>
<path d="" fill="#59BF35" transform="translate(0,0)"/>
<path d="" fill="#58BD36" transform="translate(0,0)"/>
<path d="M0 0 C2 1 2 1 2 1 Z " fill="#57BB36" transform="translate(656,296)"/>
<path d="M0 0 C2 1 2 1 2 1 Z " fill="#52B135" transform="translate(694,32)"/>
<path d="" fill="#4CA42F" transform="translate(0,0)"/>
<path d="" fill="#4CA430" transform="translate(0,0)"/>
<path d="" fill="#53B134" transform="translate(0,0)"/>
<path d="" fill="#4DA332" transform="translate(0,0)"/>
<path d="" fill="#4EA934" transform="translate(0,0)"/>
<path d="" fill="#51AA35" transform="translate(0,0)"/>
<path d="" fill="#53B036" transform="translate(0,0)"/>
<path d="" fill="#53B335" transform="translate(0,0)"/>
<path d="" fill="#54B033" transform="translate(0,0)"/>
<path d="" fill="#53B434" transform="translate(0,0)"/>
<path d="" fill="#52B335" transform="translate(0,0)"/>
<path d="" fill="#56B935" transform="translate(0,0)"/>
<path d="" fill="#55B635" transform="translate(0,0)"/>
<path d="" fill="#53B336" transform="translate(0,0)"/>
<path d="" fill="#55B936" transform="translate(0,0)"/>
<path d="" fill="#54B936" transform="translate(0,0)"/>
<path d="" fill="#54B836" transform="translate(0,0)"/>
<path d="" fill="#56BB34" transform="translate(0,0)"/>
<path d="" fill="#57BA35" transform="translate(0,0)"/>
<path d="" fill="#53BC33" transform="translate(0,0)"/>
<path d="" fill="#55B835" transform="translate(0,0)"/>
<path d="" fill="#57BB35" transform="translate(0,0)"/>
<path d="" fill="#58BE33" transform="translate(0,0)"/>
<path d="" fill="#56BB34" transform="translate(0,0)"/>
<path d="" fill="#54B536" transform="translate(0,0)"/>
<path d="" fill="#5ABF38" transform="translate(0,0)"/>
<path d="" fill="#57BA37" transform="translate(0,0)"/>
<path d="" fill="#52B635" transform="translate(0,0)"/>
<path d="" fill="#52B533" transform="translate(0,0)"/>
<path d="" fill="#54B835" transform="translate(0,0)"/>
<path d="" fill="#58BE36" transform="translate(0,0)"/>
<path d="" fill="#52AE33" transform="translate(0,0)"/>
<path d="" fill="#58BE38" transform="translate(0,0)"/>
<path d="" fill="#51B135" transform="translate(0,0)"/>
<path d="" fill="#57BF37" transform="translate(0,0)"/>
<path d="" fill="#57C137" transform="translate(0,0)"/>
<path d="" fill="#53B735" transform="translate(0,0)"/>
<path d="" fill="#55B835" transform="translate(0,0)"/>
<path d="" fill="#58C137" transform="translate(0,0)"/>
<path d="" fill="#57BA37" transform="translate(0,0)"/>
<path d="" fill="#59BF39" transform="translate(0,0)"/>
<path d="" fill="#58C038" transform="translate(0,0)"/>
<path d="" fill="#59C13A" transform="translate(0,0)"/>
<path d="" fill="#58C23A" transform="translate(0,0)"/>
<path d="" fill="#5CBE38" transform="translate(0,0)"/>
<path d="" fill="#58BC36" transform="translate(0,0)"/>
<path d="" fill="#57BA37" transform="translate(0,0)"/>
<path d="" fill="#56C036" transform="translate(0,0)"/>
<path d="" fill="#58BB36" transform="translate(0,0)"/>
<path d="" fill="#57BE38" transform="translate(0,0)"/>
<path d="" fill="#5AC238" transform="translate(0,0)"/>
<path d="" fill="#57BA36" transform="translate(0,0)"/>
<path d="" fill="#57C037" transform="translate(0,0)"/>
<path d="" fill="#57BF37" transform="translate(0,0)"/>
<path d="" fill="#56B934" transform="translate(0,0)"/>
<path d="" fill="#58C038" transform="translate(0,0)"/>
<path d="" fill="#5ABC35" transform="translate(0,0)"/>
<path d="" fill="#59C136" transform="translate(0,0)"/>
<path d="" fill="#5ABE38" transform="translate(0,0)"/>
<path d="" fill="#57BA38" transform="translate(0,0)"/>
<path d="" fill="#56BA35" transform="translate(0,0)"/>
<path d="" fill="#57BB35" transform="translate(0,0)"/>
<path d="" fill="#58BE38" transform="translate(0,0)"/>
<path d="" fill="#55BB35" transform="translate(0,0)"/>
<path d="" fill="#57BB35" transform="translate(0,0)"/>
<path d="" fill="#56BB33" transform="translate(0,0)"/>
<path d="" fill="#58B936" transform="translate(0,0)"/>
<path d="" fill="#57BB36" transform="translate(0,0)"/>
<path d="" fill="#56BA35" transform="translate(0,0)"/>
<path d="" fill="#57BA33" transform="translate(0,0)"/>
<path d="" fill="#54B936" transform="translate(0,0)"/>
<path d="" fill="#55BC35" transform="translate(0,0)"/>
<path d="" fill="#56B838" transform="translate(0,0)"/>
<path d="" fill="#55BC37" transform="translate(0,0)"/>
<path d="" fill="#56B937" transform="translate(0,0)"/>
<path d="" fill="#56B736" transform="translate(0,0)"/>
<path d="" fill="#54B835" transform="translate(0,0)"/>
<path d="" fill="#57BB36" transform="translate(0,0)"/>
<path d="" fill="#54B836" transform="translate(0,0)"/>
<path d="" fill="#54B836" transform="translate(0,0)"/>
<path d="" fill="#57B937" transform="translate(0,0)"/>
<path d="" fill="#55B933" transform="translate(0,0)"/>
<path d="" fill="#57BC35" transform="translate(0,0)"/>
<path d="" fill="#58BE36" transform="translate(0,0)"/>
<path d="" fill="#57BD36" transform="translate(0,0)"/>
<path d="" fill="#55C036" transform="translate(0,0)"/>
<path d="" fill="#53B535" transform="translate(0,0)"/>
<path d="" fill="#50B233" transform="translate(0,0)"/>
<path d="" fill="#5AC037" transform="translate(0,0)"/>
<path d="" fill="#57BE38" transform="translate(0,0)"/>
<path d="" fill="#57BD38" transform="translate(0,0)"/>
<path d="" fill="#55BD37" transform="translate(0,0)"/>
<path d="" fill="#55BB36" transform="translate(0,0)"/>
<path d="" fill="#53BC35" transform="translate(0,0)"/>
<path d="" fill="#58BC36" transform="translate(0,0)"/>
<path d="" fill="#56BE35" transform="translate(0,0)"/>
<path d="" fill="#56BE37" transform="translate(0,0)"/>
<path d="" fill="#58BE39" transform="translate(0,0)"/>
<path d="" fill="#57BD36" transform="translate(0,0)"/>
<path d="" fill="#58BE37" transform="translate(0,0)"/>
<path d="" fill="#57BC36" transform="translate(0,0)"/>
<path d="" fill="#57BE36" transform="translate(0,0)"/>
<path d="" fill="#58BD35" transform="translate(0,0)"/>
<path d="" fill="#58BA38" transform="translate(0,0)"/>
<path d="" fill="#59BB37" transform="translate(0,0)"/>
<path d="" fill="#57BD36" transform="translate(0,0)"/>
<path d="" fill="#57BB35" transform="translate(0,0)"/>
<path d="" fill="#57BC37" transform="translate(0,0)"/>
<path d="" fill="#57BC37" transform="translate(0,0)"/>
<path d="" fill="#57BA38" transform="translate(0,0)"/>
<path d="" fill="#55B935" transform="translate(0,0)"/>
<path d="" fill="#55BB36" transform="translate(0,0)"/>
<path d="" fill="#54B937" transform="translate(0,0)"/>
<path d="" fill="#56BA36" transform="translate(0,0)"/>
<path d="" fill="#55B835" transform="translate(0,0)"/>
<path d="" fill="#54B836" transform="translate(0,0)"/>
<path d="" fill="#57BE37" transform="translate(0,0)"/>
<path d="" fill="#58C037" transform="translate(0,0)"/>
<path d="" fill="#57BC34" transform="translate(0,0)"/>
<path d="" fill="#56BD38" transform="translate(0,0)"/>
<path d="" fill="#56BA35" transform="translate(0,0)"/>
<path d="" fill="#54B933" transform="translate(0,0)"/>
<path d="" fill="#57BC37" transform="translate(0,0)"/>
<path d="" fill="#59BF38" transform="translate(0,0)"/>
<path d="" fill="#57BD36" transform="translate(0,0)"/>
<path d="" fill="#56BB38" transform="translate(0,0)"/>
<path d="" fill="#58BD38" transform="translate(0,0)"/>
<path d="" fill="#58BF36" transform="translate(0,0)"/>
<path d="" fill="#52AE32" transform="translate(0,0)"/>
<path d="" fill="#53B435" transform="translate(0,0)"/>
<path d="" fill="#53B433" transform="translate(0,0)"/>
<path d="" fill="#57BC38" transform="translate(0,0)"/>
<path d="" fill="#56B536" transform="translate(0,0)"/>
<path d="" fill="#57B939" transform="translate(0,0)"/>
<path d="" fill="#58B937" transform="translate(0,0)"/>
<path d="" fill="#59BF37" transform="translate(0,0)"/>
<path d="" fill="#59BC37" transform="translate(0,0)"/>
<path d="" fill="#59B938" transform="translate(0,0)"/>
<path d="" fill="#57BD36" transform="translate(0,0)"/>
<path d="" fill="#57BC37" transform="translate(0,0)"/>
<path d="" fill="#57BB36" transform="translate(0,0)"/>
<path d="" fill="#56BA37" transform="translate(0,0)"/>
<path d="" fill="#58BE3B" transform="translate(0,0)"/>
<path d="" fill="#5BBC36" transform="translate(0,0)"/>
<path d="" fill="#57B935" transform="translate(0,0)"/>
<path d="" fill="#57B938" transform="translate(0,0)"/>
<path d="" fill="#58BD37" transform="translate(0,0)"/>
<path d="" fill="#59BF37" transform="translate(0,0)"/>
<path d="" fill="#58BC39" transform="translate(0,0)"/>
<path d="" fill="#57C037" transform="translate(0,0)"/>
<path d="" fill="#55BB37" transform="translate(0,0)"/>
<path d="" fill="#5BC13A" transform="translate(0,0)"/>
<path d="" fill="#56B938" transform="translate(0,0)"/>
<path d="" fill="#59C03D" transform="translate(0,0)"/>
<path d="" fill="#5AC13D" transform="translate(0,0)"/>
<path d="" fill="#5AC239" transform="translate(0,0)"/>
<path d="" fill="#58BD3A" transform="translate(0,0)"/>
<path d="" fill="#5ABF37" transform="translate(0,0)"/>
<path d="" fill="#53B034" transform="translate(0,0)"/>
<path d="" fill="#57BB33" transform="translate(0,0)"/>
<path d="" fill="#54B334" transform="translate(0,0)"/>
<path d="" fill="#53B233" transform="translate(0,0)"/>
<path d="" fill="#58BF37" transform="translate(0,0)"/>
<path d="" fill="#51B133" transform="translate(0,0)"/>
<path d="" fill="#59BD35" transform="translate(0,0)"/>
<path d="" fill="#56B534" transform="translate(0,0)"/>
<path d="" fill="#57BA37" transform="translate(0,0)"/>
<path d="" fill="#57B936" transform="translate(0,0)"/>
<path d="" fill="#55B632" transform="translate(0,0)"/>
<path d="" fill="#58BA37" transform="translate(0,0)"/>
<path d="" fill="#52B835" transform="translate(0,0)"/>
<path d="" fill="#55B534" transform="translate(0,0)"/>
<path d="" fill="#55B435" transform="translate(0,0)"/>
<path d="" fill="#55BA34" transform="translate(0,0)"/>
<path d="" fill="#54B737" transform="translate(0,0)"/>
<path d="" fill="#55BA35" transform="translate(0,0)"/>
<path d="" fill="#50AA32" transform="translate(0,0)"/>
<path d="" fill="#57B637" transform="translate(0,0)"/>
<path d="" fill="#51AC34" transform="translate(0,0)"/>
<path d="" fill="#51A835" transform="translate(0,0)"/>
<path d="" fill="#56B635" transform="translate(0,0)"/>
<path d="" fill="#53B636" transform="translate(0,0)"/>
<path d="" fill="#56B636" transform="translate(0,0)"/>
</svg>
