<?xml version="1.0" encoding="UTF-8"?>
<svg version="1.1" xmlns="http://www.w3.org/2000/svg" width="1024" height="1024">
<path d="M0 0 C2.12095497 3.2840593 2.35165413 4.95527778 1.578125 8.765625 C-2.19366679 21.92089882 -10.2485221 31.75315787 -18.66210938 42.25 C-20.01634146 43.94231792 -21.36027215 45.64239797 -22.703125 47.34375 C-23.50234375 48.3440625 -24.3015625 49.344375 -25.125 50.375 C-25.83785156 51.26960938 -26.55070312 52.16421875 -27.28515625 53.0859375 C-27.87167969 53.71757813 -28.45820313 54.34921875 -29.0625 55 C-29.7225 55 -30.3825 55 -31.0625 55 C-31.0625 55.66 -31.0625 56.32 -31.0625 57 C-31.7225 57 -32.3825 57 -33.0625 57 C-33.2275 57.70125 -33.3925 58.4025 -33.5625 59.125 C-35.4181019 62.68157031 -37.57661374 64.01294132 -40.80859375 66.28515625 C-43.17769265 68.08764224 -45.13413672 70.0343471 -47.1875 72.1875 C-52.4731011 77.60979768 -58.38540004 82.07961697 -64.37402344 86.68310547 C-66.81632329 88.58792984 -69.18671647 90.57567218 -71.5625 92.5625 C-76.79414424 96.87454946 -82.26244169 100.78921863 -87.80078125 104.69140625 C-91.61258779 107.38934358 -95.34474028 110.17450261 -99.0625 113 C-98.629375 114.25490234 -98.629375 114.25490234 -98.1875 115.53515625 C-95.03139882 125.4308485 -93.08255745 135.38357329 -96.1484375 145.62890625 C-97.08172933 149.07091841 -97.30097735 150.69360633 -96.0625 154 C-94.48495746 155.84546161 -94.48495746 155.84546161 -92.4375 157.375 C-89.67204589 159.64838042 -87.05961356 161.93384182 -84.5625 164.5 C-81.61649785 167.49234375 -78.53266993 170.25324172 -75.3515625 172.9921875 C-73.12702863 174.9433998 -70.95131207 176.94138074 -68.78222656 178.95385742 C-64.49939401 182.92619144 -60.18224066 186.77709242 -55.625 190.4375 C-51.44009905 193.80348508 -47.47960021 197.33199722 -43.5625 201 C-38.85977013 205.39921694 -34.03550545 209.55224015 -29.01171875 213.5859375 C-25.44344828 216.50672048 -21.97266331 219.52927197 -18.5 222.5625 C-12.80065627 227.52855327 -7.01771682 232.34177825 -1.0625 237 C-0.07765625 237.78117188 0.9071875 238.56234375 1.921875 239.3671875 C5.57833265 242.26467482 9.25439096 245.13648855 12.9375 248 C13.72092773 248.6094043 14.50435547 249.21880859 15.31152344 249.84667969 C27.5637592 259.34986449 40.00721835 268.44098069 52.9375 277 C53.7227002 277.52029785 54.50790039 278.0405957 55.31689453 278.57666016 C57.62349067 280.09968714 59.93499703 281.61478673 62.25 283.125 C62.93739258 283.57464111 63.62478516 284.02428223 64.33300781 284.48754883 C68.1032139 286.92134315 71.90610125 289.01557381 75.9375 291 C77.28920883 291.86785851 78.62378708 292.76313345 79.9375 293.6875 C83.92492622 296.36380641 87.95297788 298.95357308 92.0625 301.4375 C92.63613281 301.80383545 93.20976562 302.1701709 93.80078125 302.54760742 C96.91888905 304.39430141 98.84660313 305.00279683 102.4921875 304.890625 C105.91052476 304.00697319 108.76600127 302.8537513 111.9375 301.3125 C118.2396623 298.43964934 124.68351821 296.50909522 131.375 294.75 C132.29087891 294.50419189 133.20675781 294.25838379 134.15039062 294.00512695 C147.01921276 290.73035037 159.87438273 289.62887636 173.125 289.6875 C173.79625916 289.68965515 174.46751831 289.6918103 175.15911865 289.69403076 C201.65611964 289.82964749 229.67610094 295.36262666 252.59375 309.3125 C256.80740506 310.54850548 260.26614939 308.85504526 264.00195312 306.94384766 C266.34737852 305.61655487 268.64429751 304.22810801 270.9375 302.8125 C271.80052734 302.28640137 272.66355469 301.76030273 273.55273438 301.21826172 C299.155027 285.49860066 323.80337859 268.44765379 347.3671875 249.81640625 C349.71762048 247.95826767 352.07673688 246.11229555 354.4453125 244.27734375 C366.66139575 234.79490561 378.9933287 224.9441713 389.9375 214 C391.15864609 213.09326394 392.38897381 212.19884491 393.625 211.3125 C396.38904623 209.26175602 398.86381909 207.16590046 401.25 204.6875 C404.13219287 201.69978062 407.20139073 199.10036611 410.4375 196.5 C414.28202769 193.40549613 417.83343594 190.23085463 421.2578125 186.68359375 C423.71974281 184.21593802 426.3678257 181.98006513 429.01171875 179.7109375 C430.86562961 178.06385239 432.59125701 176.34656208 434.3125 174.5625 C436.9375 172 436.9375 172 438.9375 172 C438.9375 171.34 438.9375 170.68 438.9375 170 C440.44140625 168.51953125 440.44140625 168.51953125 442.5 166.8125 C443.21800781 166.17699219 443.93601562 165.54148438 444.67578125 164.88671875 C446.9375 163 446.9375 163 449.16796875 161.58203125 C451.60871115 159.82110879 452.76099407 158.79817626 453.9375 156 C453.32838122 150.79385661 451.91951339 145.94920292 450.45605469 140.92919922 C447.59426923 130.28238722 452.54245015 118.99769281 455.9375 109 C454.266875 108.00033203 454.266875 108.00033203 452.5625 106.98046875 C432.24729139 94.74782381 412.60220788 81.4067471 395.24609375 65.16015625 C393.16583864 63.21365697 391.04153687 61.34906414 388.875 59.5 C374.96525188 47.35026083 356.1067911 28.94525878 351.9375 10 C351.69487714 6.17049319 352.06752274 3.15996969 354.4375 0 C362.41349591 -3.19039836 370.38904881 -0.07800922 377.9375 3 C388.37246244 7.57150736 397.7249076 13.52571208 407.14501953 19.87426758 C408.95246217 21.0531443 408.95246217 21.0531443 411.04833984 22.03417969 C413.50216162 23.28867942 415.00463075 25.03561658 416.9375 27 C419.08977775 28.7112827 421.25237326 30.39464287 423.4375 32.0625 C432.15423727 38.80968366 440.17413794 46.17073504 447.9375 54 C448.68 54.7425 449.4225 55.485 450.1875 56.25 C451.095 57.1575 452.0025 58.065 452.9375 59 C453.70191406 59.74121094 454.46632813 60.48242188 455.25390625 61.24609375 C456.48947266 62.45458984 456.48947266 62.45458984 457.75 63.6875 C458.54019531 64.45449219 459.33039062 65.22148438 460.14453125 66.01171875 C461.9375 68 461.9375 68 461.9375 70 C462.5975 70 463.2575 70 463.9375 70 C465.43627503 71.65483608 466.86238473 73.37590512 468.25 75.125 C469.05695312 76.12273437 469.86390625 77.12046875 470.6953125 78.1484375 C471.97338125 79.77385595 473.23260036 81.41561254 474.4296875 83.1015625 C475.69744029 84.9486812 475.69744029 84.9486812 477.9375 87 C480.94283768 87.06830313 483.09485181 86.32456067 485.87646484 85.25317383 C491.62903212 83.120001 496.70220439 82.52242485 502.8125 82.625 C503.68946533 82.63515137 504.56643066 82.64530273 505.4699707 82.65576172 C522.5032608 83.06285656 533.4416028 90.99572504 544.9375 103 C549.78531504 109.30893295 552.58522361 116.44858965 554.9375 124 C555.13214844 124.62003906 555.32679688 125.24007812 555.52734375 125.87890625 C557.36790708 135.39724806 555.95144828 144.92692252 552.9375 154 C552.59734963 155.33161053 552.26294298 156.66471885 551.9375 158 C552.59121582 158.40202637 553.24493164 158.80405273 553.91845703 159.21826172 C576.96623756 173.42302183 576.96623756 173.42302183 586.00048828 180.20458984 C588.67467002 182.37360447 588.67467002 182.37360447 591.9375 183 C593.62915872 184.6412941 595.29069337 186.31370718 596.9375 188 C599.00238044 189.83889712 601.12544797 191.60563526 603.25 193.375 C604.40924837 194.3484891 605.5681039 195.3224462 606.7265625 196.296875 C607.28118164 196.76287109 607.83580078 197.22886719 608.40722656 197.70898438 C611.62643125 200.42486733 614.7879767 203.20393021 617.9375 206 C618.71480469 206.68449219 619.49210938 207.36898437 620.29296875 208.07421875 C630.02522404 216.72008275 638.95567014 225.70001493 646.9375 236 C647.39866211 236.59006836 647.85982422 237.18013672 648.33496094 237.78808594 C661.9375 255.2951412 661.9375 255.2951412 661.9375 264.9375 C660.9375 268 660.9375 268 659.3125 269.9375 C652.62865557 272.92764093 644.64292164 270.16450087 638.10546875 267.85205078 C622.36282086 261.66490651 608.44090099 252.01301297 594.9375 242 C593.9784375 241.29762207 593.9784375 241.29762207 593 240.58105469 C585.81844872 235.30907159 579.13670503 229.61269358 572.64453125 223.5234375 C570.4069943 221.43765269 568.13820652 219.4229729 565.8125 217.4375 C558.23693645 210.83436904 551.52017859 203.67497766 545.25390625 195.828125 C541.33804629 191.04720998 537.13676814 186.53240424 532.9375 182 C532.04546875 182.34933594 531.1534375 182.69867188 530.234375 183.05859375 C529.06390625 183.51363281 527.8934375 183.96867188 526.6875 184.4375 C525.52734375 184.88996094 524.3671875 185.34242188 523.171875 185.80859375 C517.83783917 187.77342579 513.23612814 188.15424551 507.5625 188.125 C506.82 188.12886719 506.0775 188.13273438 505.3125 188.13671875 C501.89184782 188.13067519 499.03724421 188.024726 495.69140625 187.1953125 C492.77096807 186.67316806 492.77096807 186.67316806 490.48828125 188.984375 C489.74964844 189.89703125 489.01101563 190.8096875 488.25 191.75 C487.13044922 193.10351562 487.13044922 193.10351562 485.98828125 194.484375 C485.31152344 195.31453125 484.63476562 196.1446875 483.9375 197 C482.29296875 198.828125 482.29296875 198.828125 480.9375 200 C480.2775 200 479.6175 200 478.9375 200 C478.710625 200.5775 478.48375 201.155 478.25 201.75 C476.59023655 204.59530878 474.51683333 205.93653334 471.9375 208 C470.86876728 209.18490309 469.8226581 210.39038985 468.79296875 211.609375 C464.2195779 216.90078282 459.2406471 221.74699864 454.25390625 226.64453125 C450.15945396 230.69455911 446.24621331 234.82148679 442.51171875 239.20703125 C440.89073436 241.05326409 439.19170871 242.78059191 437.4375 244.5 C434.46692594 247.42467115 431.73020881 250.48619561 429.01171875 253.64453125 C426.92344819 256.01595714 424.78290519 258.32828192 422.6262207 260.63720703 C417.69158303 265.92393361 412.94132612 271.28833989 408.41015625 276.9296875 C405.91176696 280.03195287 403.37497336 283.09924872 400.83154297 286.16455078 C394.35500221 293.98094641 388.02646537 301.87630174 381.9375 310 C381.41188477 310.69818848 380.88626953 311.39637695 380.34472656 312.11572266 C369.12124028 327.05582832 358.73485206 342.41883154 348.8125 358.25 C348.25554443 359.13155762 347.69858887 360.01311523 347.12475586 360.92138672 C344.44795975 365.23772564 342.48367969 369.14057811 340.9375 374 C339.484375 375.58203125 339.484375 375.58203125 337.9375 377 C334.80257421 381.84880006 331.97571641 386.65271178 333.20703125 392.58984375 C334.44238395 396.66584706 335.76804349 400.71328435 337.20849609 404.72143555 C338.39649049 408.06694199 338.9375 410.39254236 338.9375 414 C339.5975 414.33 340.2575 414.66 340.9375 415 C341.42407227 416.75219727 341.42407227 416.75219727 341.75390625 419.06640625 C341.87805908 419.93185059 342.00221191 420.79729492 342.13012695 421.68896484 C342.25218506 422.63723145 342.37424316 423.58549805 342.5 424.5625 C342.69178833 426.03904053 342.69178833 426.03904053 342.88745117 427.54541016 C346.52920507 457.31422088 347.39129235 494.50401821 332.5625 521.75 C330.68966814 525.49566373 330.76265372 526.12633232 331.9375 530 C333.09301142 532.36457094 334.28086989 534.64440193 335.5625 536.9375 C336.29856289 538.28162915 337.03290328 539.62670282 337.765625 540.97265625 C338.13365234 541.64828613 338.50167969 542.32391602 338.88085938 543.02001953 C340.43594473 545.93400803 341.86994198 548.90401742 343.3125 551.875 C353.84936154 573.04343644 366.94261336 593.26147163 381.37939453 611.95458984 C383.66610079 614.95647405 385.87874242 618.01091685 388.09912109 621.06201172 C394.64798121 630.05251448 401.47681415 638.75074657 408.56103516 647.32373047 C410.40361062 649.56763312 412.20211681 651.84520998 414 654.125 C422.63895454 664.92369318 431.83955619 675.1477215 441.34375 685.1875 C444.44116845 688.46098223 447.4774094 691.7823704 450.5 695.125 C454.72795671 699.7541032 459.07631002 704.24517325 463.5 708.6875 C464.10851807 709.30061035 464.71703613 709.9137207 465.34399414 710.54541016 C468.35354674 713.65019399 468.35354674 713.65019399 471.9375 716 C471.9375 716.66 471.9375 717.32 471.9375 718 C472.5975 718 473.2575 718 473.9375 718 C473.9375 718.66 473.9375 719.32 473.9375 720 C475.10925781 719.57847656 476.28101563 719.15695312 477.48828125 718.72265625 C493.58457692 713.05352067 507.43430938 710.84297597 523.703125 717.9140625 C526.88606181 719.46101431 529.91444047 721.15987681 532.9375 723 C533.18242188 722.29230469 533.42734375 721.58460938 533.6796875 720.85546875 C535.11032285 717.60765993 536.90429397 715.12869567 539.0625 712.3125 C539.46355957 711.787771 539.86461914 711.26304199 540.27783203 710.72241211 C544.09019403 705.75431039 547.96652567 700.84212043 551.9375 696 C552.73542969 695.02675781 553.53335938 694.05351563 554.35546875 693.05078125 C561.84324401 684.01784243 569.82645419 675.4732729 577.9375 667 C578.78570313 666.10925781 579.63390625 665.21851563 580.5078125 664.30078125 C585.0857431 659.599788 589.9418886 655.40387419 595.0703125 651.3125 C596.98983628 649.76432824 598.88084541 648.18015663 600.7421875 646.5625 C612.98486096 635.9455474 628.22879404 624.49152748 644.74609375 622.75 C647.58716692 623.0741153 648.86941932 624.06402139 650.9375 626 C653.00909432 631.6623578 651.09905224 636.65263057 648.9375 642 C640.6683404 659.66593187 628.67659417 674.86891423 615.46875 689.125 C613.73171323 691.02544961 613.73171323 691.02544961 612.9375 694 C611.9475 694.33 610.9575 694.66 609.9375 695 C609.6075 695.66 609.2775 696.32 608.9375 697 C608.2775 697 607.6175 697 606.9375 697 C606.69 697.5775 606.4425 698.155 606.1875 698.75 C604.75450012 701.32939979 603.15325324 703.06121592 600.9375 705 C600.2775 705 599.6175 705 598.9375 705 C598.69 705.78375 598.4425 706.5675 598.1875 707.375 C596.9375 710 596.9375 710 595.16796875 710.8828125 C592.28251877 712.32806415 590.33843247 714.27761005 588 716.5 C579.20026336 724.6760631 569.51370173 731.6579882 559.75 738.625 C559.00669434 739.15851074 558.26338867 739.69202148 557.49755859 740.24169922 C556.45656006 740.97670654 556.45656006 740.97670654 555.39453125 741.7265625 C554.77553955 742.16564941 554.15654785 742.60473633 553.51879883 743.05712891 C551.9375 744 551.9375 744 549.9375 744 C550.21464844 744.79921875 550.49179687 745.5984375 550.77734375 746.421875 C555.57364051 760.96438334 556.56194089 775.19269156 550.25390625 789.53125 C542.74585834 803.61162472 531.24605643 813.68580822 516.01098633 818.62451172 C511.2450928 819.93188151 506.68175908 820.38475336 501.75 820.375 C501.01749023 820.37556396 500.28498047 820.37612793 499.53027344 820.37670898 C493.54487828 820.25759988 488.31556165 819.01227876 482.671875 816.97265625 C480.09543288 816.05617898 477.62750843 815.46633358 474.9375 815 C474.28265625 815.969375 473.6278125 816.93875 472.953125 817.9375 C462.73900822 832.97731803 452.02685496 847.41020768 439.9375 861 C439.48552246 861.50982422 439.03354492 862.01964844 438.56787109 862.54492188 C435.41505398 866.08565405 432.2016455 869.56230952 428.9375 873 C428.40398926 873.56219238 427.87047852 874.12438477 427.32080078 874.70361328 C419.56612842 882.81188975 411.52219088 890.16088913 402.50244141 896.84082031 C401.08891835 897.88784176 399.69000102 898.95451178 398.29296875 900.0234375 C389.91235223 906.22428139 380.75159822 911.77438697 370.05859375 911.50390625 C367.40257902 910.87291933 365.93708315 909.84206676 363.9375 908 C361.53445816 901.09125472 364.24956903 894.50762235 366.9375 888 C371.98731347 877.81423553 378.82575407 868.81041136 385.9375 860 C386.64390625 859.10023438 387.3503125 858.20046875 388.078125 857.2734375 C404.37825198 836.80772251 423.6935997 816.32678133 444.9375 801 C446.56402161 799.77284754 448.18927475 798.54400943 449.8125 797.3125 C450.84375 796.549375 451.875 795.78625 452.9375 795 C452.29620923 791.31257807 451.27212952 787.99358903 449.9375 784.5 C447.70945848 778.66777367 446.84525518 774.62799943 447.6875 768.4375 C447.78586673 764.03285629 447.0541737 761.7551252 444.1171875 758.5859375 C440.44265597 755.05508825 436.51412292 751.28831146 431.9375 749 C431.9375 748.34 431.9375 747.68 431.9375 747 C431.06593262 746.61847778 431.06593262 746.61847778 430.17675781 746.22924805 C427.69570358 744.86726505 426.08231897 743.3568556 424.109375 741.33203125 C423.39136719 740.60306641 422.67335938 739.87410156 421.93359375 739.12304688 C420.82177734 737.97932617 420.82177734 737.97932617 419.6875 736.8125 C414.85221896 731.86127528 409.99713684 727.04791683 404.72167969 722.56323242 C402.8770871 720.94706845 401.15366718 719.251191 399.4375 717.5 C394.945771 712.93615609 390.27280498 708.55686999 384.9375 705 C384.9375 704.34 384.9375 703.68 384.9375 703 C384.34525635 702.7306665 383.7530127 702.46133301 383.14282227 702.18383789 C380.94024358 701.00147278 379.44399939 699.78794028 377.65234375 698.05859375 C377.04535645 697.47980469 376.43836914 696.90101563 375.81298828 696.3046875 C375.17345215 695.68851563 374.53391602 695.07234375 373.875 694.4375 C368.70797362 689.53993882 363.48292373 684.83375072 357.91796875 680.38671875 C355.6306167 678.55503841 353.36647231 676.70499287 351.11328125 674.83203125 C324.54771919 652.75221137 297.01628643 632.46474392 267.47021484 614.55664062 C265.71447566 613.4775397 263.97608406 612.36989579 262.25244141 611.24023438 C261.38151855 610.68142578 260.5105957 610.12261719 259.61328125 609.546875 C258.83509033 609.03479492 258.05689941 608.52271484 257.25512695 607.99511719 C253.77983546 606.50293473 251.45011305 607.39655978 248.05078125 608.75268555 C247.45652344 609.0444165 246.86226562 609.33614746 246.25 609.63671875 C234.77982983 615.09492839 223.30790304 619.09582884 210.9375 622 C210.17373047 622.17934082 209.40996094 622.35868164 208.62304688 622.54345703 C186.19623279 627.48304622 159.27087483 627.25491172 136.9375 622 C136.18758789 621.83371094 135.43767578 621.66742187 134.66503906 621.49609375 C124.05280095 619.10933466 113.97667189 615.70744427 103.87744141 611.67895508 C103.04390137 611.34661865 102.21036133 611.01428223 101.3515625 610.671875 C100.6188916 610.3737793 99.8862207 610.07568359 99.13134766 609.76855469 C94.65113785 608.10236189 94.65113785 608.10236189 90.06323242 608.64575195 C89.47904541 609.00628662 88.8948584 609.36682129 88.29296875 609.73828125 C87.62499268 610.14071045 86.9570166 610.54313965 86.26879883 610.95776367 C85.20761841 611.62835815 85.20761841 611.62835815 84.125 612.3125 C82.99904419 613.00146362 82.99904419 613.00146362 81.8503418 613.7043457 C80.29166396 614.6612048 78.73706888 615.62474473 77.18652344 616.59472656 C75.14702714 617.86907966 73.09652282 619.12213311 71.0390625 620.3671875 C43.94780339 636.87592352 18.14426951 655.76838926 -5.96875 676.375 C-8.8580132 678.83915964 -11.79768458 681.23661 -14.75 683.625 C-19.20153808 687.24834495 -23.48632455 691.01963872 -27.73046875 694.8828125 C-29.82073889 696.78051169 -31.93236115 698.64733415 -34.0625 700.5 C-46.39732846 711.25912183 -58.55141002 722.23301361 -69.91796875 734.015625 C-72.0625 736 -72.0625 736 -74.0625 736 C-74.0625 736.66 -74.0625 737.32 -74.0625 738 C-75.49609375 739.41015625 -75.49609375 739.41015625 -77.5 741.0625 C-81.65211788 744.57070655 -85.42057233 748.35450405 -89.1796875 752.27734375 C-91.0625 754 -91.0625 754 -93.0625 754 C-92.8975 754.86625 -92.7325 755.7325 -92.5625 756.625 C-90.87230481 769.13748974 -92.08324907 780.74177078 -98.0625 792 C-96.6084375 792.87398437 -96.6084375 792.87398437 -95.125 793.765625 C-84.97159635 799.94562415 -75.4355426 806.69691484 -66.0625 814 C-65.14855469 814.71027344 -64.23460937 815.42054688 -63.29296875 816.15234375 C-60.85947993 818.0747606 -58.4560824 820.02814403 -56.0625 822 C-55.10601562 822.78246094 -54.14953125 823.56492187 -53.1640625 824.37109375 C-38.85319121 836.20482457 -23.9651908 848.9683685 -12.5625 863.6875 C-12.10037109 864.28127441 -11.63824219 864.87504883 -11.16210938 865.48681641 C4.58090243 886.0583384 4.58090243 886.0583384 3.875 896.3125 C2.9375 900 2.9375 900 1.25 901.9375 C-5.86452508 905.20633585 -11.97515739 903.29144225 -19.04150391 900.79101562 C-31.10550375 896.06917949 -41.83201118 888.82984315 -52.0625 881 C-52.64628418 880.55897949 -53.23006836 880.11795898 -53.83154297 879.66357422 C-61.36110779 873.96247125 -68.48726515 867.95588898 -75.37890625 861.5 C-77.67208458 859.36370577 -79.99913261 857.29297234 -82.375 855.25 C-88.82025972 849.64368937 -94.5209306 843.48847834 -100.0625 837 C-100.92230469 836.00613281 -101.78210938 835.01226563 -102.66796875 833.98828125 C-108.49199118 827.21911014 -113.94056615 820.32333809 -119.0625 813 C-119.93132812 813.27714844 -120.80015625 813.55429687 -121.6953125 813.83984375 C-122.84773437 814.20207031 -124.00015625 814.56429687 -125.1875 814.9375 C-126.32445312 815.29714844 -127.46140625 815.65679688 -128.6328125 816.02734375 C-142.43043568 819.94033711 -156.89081839 818.52839411 -169.94921875 812.71484375 C-183.41125821 805.12791727 -192.91255164 793.85284453 -197.34375 779.03125 C-200.95078226 763.8189835 -197.23969112 750.28667625 -192.0625 736 C-193.06990234 735.64421875 -193.06990234 735.64421875 -194.09765625 735.28125 C-197.8016791 733.68056556 -201.09456484 731.65262013 -204.5 729.5 C-205.55344604 728.83677734 -205.55344604 728.83677734 -206.62817383 728.16015625 C-213.63525681 723.70490412 -220.40098502 718.95438038 -227.0625 714 C-227.6100293 713.59281738 -228.15755859 713.18563477 -228.72167969 712.76611328 C-292.80424856 664.82778802 -292.80424856 664.82778802 -300.8125 632.5 C-301.4436479 627.89723848 -300.3210794 624.99594818 -298.0625 621 C-281.25176692 618.01745058 -265.55430559 629.05420663 -252.05078125 638.01953125 C-250.18377654 639.25687947 -248.29075737 640.45679122 -246.36328125 641.59765625 C-244.34896712 642.8253961 -242.68803125 644.05777045 -240.9375 645.625 C-237.93305963 648.26447582 -234.86047785 650.79867234 -231.75 653.3125 C-227.16770444 657.04738474 -222.74546841 660.9184537 -218.37890625 664.90234375 C-216.38725183 666.70591613 -214.36228143 668.45106096 -212.3125 670.1875 C-208.24136178 673.73712878 -204.40171118 677.51602141 -200.5625 681.3125 C-199.60778809 682.24775513 -199.60778809 682.24775513 -198.63378906 683.2019043 C-198.04307617 683.79140869 -197.45236328 684.38091309 -196.84375 684.98828125 C-196.30814453 685.51977783 -195.77253906 686.05127441 -195.22070312 686.59887695 C-194.0625 688 -194.0625 688 -194.0625 690 C-193.48886719 690.22816406 -192.91523438 690.45632813 -192.32421875 690.69140625 C-189.45066817 692.35399597 -187.92802841 694.33101403 -185.875 696.9375 C-185.09511719 697.91589844 -184.31523437 698.89429688 -183.51171875 699.90234375 C-182.29935547 701.43568359 -182.29935547 701.43568359 -181.0625 703 C-179.44182759 705.00350841 -177.81699925 707.00366406 -176.1875 709 C-175.46820313 709.886875 -174.74890625 710.77375 -174.0078125 711.6875 C-172.4294048 713.56384007 -170.83276877 715.30766759 -169.0625 717 C-168.33804688 716.72285156 -167.61359375 716.44570313 -166.8671875 716.16015625 C-165.90039062 715.79792969 -164.93359375 715.43570313 -163.9375 715.0625 C-162.98617187 714.70285156 -162.03484375 714.34320312 -161.0546875 713.97265625 C-149.02214089 710.06129319 -137.71349019 711.77099627 -126.0625 716 C-125.0725 716.33 -124.0825 716.66 -123.0625 717 C-122.50820312 716.3503125 -121.95390625 715.700625 -121.3828125 715.03125 C-120.29613281 713.77828125 -120.29613281 713.77828125 -119.1875 712.5 C-118.10855469 711.24703125 -118.10855469 711.24703125 -117.0078125 709.96875 C-116.36585938 709.3190625 -115.72390625 708.669375 -115.0625 708 C-114.4025 708 -113.7425 708 -113.0625 708 C-113.0625 707.34 -113.0625 706.68 -113.0625 706 C-111.43463859 704.27078119 -109.78102318 702.6352635 -108.0625 701 C-106.95862132 699.91250232 -105.85717284 698.82253385 -104.7578125 697.73046875 C-104.17797607 697.15586914 -103.59813965 696.58126953 -103.00073242 695.98925781 C-98.07256993 691.09228202 -93.18527398 686.21494748 -88.69140625 680.91015625 C-86.74012284 678.6219606 -84.71432313 676.4090094 -82.6875 674.1875 C-78.78886603 669.86739209 -75.08746142 665.41928619 -71.4296875 660.89453125 C-69.37858095 658.38649503 -67.28825668 655.91901907 -65.17553711 653.46289062 C-58.69722211 645.91587992 -52.65041637 638.07234621 -46.66796875 630.12890625 C-45.13925459 628.1017792 -43.60206025 626.08139563 -42.0625 624.0625 C-21.0465745 596.40629535 -1.83686727 567.34291375 13.5 536.125 C13.98339844 535.16255371 14.46679688 534.20010742 14.96484375 533.20849609 C15.39023437 532.31727051 15.815625 531.42604492 16.25390625 530.5078125 C16.62974854 529.73066895 17.00559082 528.95352539 17.39282227 528.15283203 C18.16826974 525.96875847 18.16826974 525.96875847 17.08496094 523.83764648 C16.70629883 523.23122314 16.32763672 522.6247998 15.9375 522 C13.65838966 515.55789042 12.06782532 508.85030094 10.3125 502.25 C10.09424561 501.43394287 9.87599121 500.61788574 9.65112305 499.77709961 C7.79774003 492.73049559 6.81184805 486.28781315 6.9375 479 C6.2775 478.67 5.6175 478.34 4.9375 478 C4.9375 464.8 4.9375 451.6 4.9375 438 C5.5975 438 6.2575 438 6.9375 438 C6.95167969 437.29359375 6.96585937 436.5871875 6.98046875 435.859375 C7.72044585 419.93986769 11.93020153 401.0824434 19.99291992 387.18017578 C21.12626917 385.00910449 21.71499336 383.44863771 21.9375 381 C20.56410946 376.76787578 18.32058364 373.15289846 16 369.375 C15.35337402 368.27687988 14.70674805 367.17875977 14.04052734 366.04736328 C12.03950842 362.67674081 9.99594343 359.33580559 7.9375 356 C7.34598145 355.030625 6.75446289 354.06125 6.14501953 353.0625 C-8.17407362 329.57946007 -8.17407362 329.57946007 -24.77734375 307.71875 C-27.11859079 304.93326634 -29.06453773 302.03832132 -31.0625 299 C-36.37591855 291.85120372 -41.9099414 284.8823674 -47.58203125 278.015625 C-49.46761274 275.72323301 -51.33844561 273.42177037 -53.19921875 271.109375 C-58.67615647 264.30989268 -64.18351101 257.59526072 -70.0859375 251.15625 C-71.9434692 249.12985179 -73.75938809 247.07481371 -75.5625 245 C-78.92048442 241.14682894 -82.33372663 237.34564349 -85.76171875 233.5546875 C-87.2318609 231.92230555 -88.69368468 230.28236789 -90.14453125 228.6328125 C-95.37263656 222.71603284 -100.86923127 217.13378159 -106.54174805 211.64550781 C-108.08491329 210.1331252 -109.57853501 208.57051203 -111.0625 207 C-111.0625 206.34 -111.0625 205.68 -111.0625 205 C-111.68125 204.7525 -112.3 204.505 -112.9375 204.25 C-115.46608627 202.76259631 -115.78089004 201.56321991 -117.0625 199 C-117.64515625 198.7215625 -118.2278125 198.443125 -118.828125 198.15625 C-121.67232183 196.68442786 -123.55903568 194.76819284 -125.8125 192.5 C-127.01132812 191.30890625 -127.01132812 191.30890625 -128.234375 190.09375 C-130.0625 188 -130.0625 188 -130.0625 186 C-130.743125 186.2165625 -131.42375 186.433125 -132.125 186.65625 C-145.46868101 190.48900944 -158.18128481 190.43227552 -171.0625 185 C-172.74991965 184.03543133 -174.42395141 183.04543594 -176.0625 182 C-177.33721705 183.55933321 -178.60710214 185.12261706 -179.875 186.6875 C-180.58269531 187.55761719 -181.29039062 188.42773438 -182.01953125 189.32421875 C-183.91204729 191.80294435 -185.47678781 194.32023499 -187.0625 197 C-187.88297456 198.06840612 -188.73680478 199.11219232 -189.625 200.125 C-190.14320313 200.71667969 -190.66140625 201.30835938 -191.1953125 201.91796875 C-194.31878174 205.40083299 -197.47058656 208.85766623 -200.625 212.3125 C-202.60949222 214.50052988 -204.56555236 216.70544503 -206.5 218.9375 C-218.4612592 232.68022333 -230.91170299 245.09682132 -245.31469727 256.26855469 C-247.67086643 258.09892952 -249.95034567 259.88784567 -252.0625 262 C-280.59234918 281.87955593 -280.59234918 281.87955593 -294.0625 280 C-296.875 278.9375 -296.875 278.9375 -299.0625 277 C-301.37700468 270.46492798 -298.83360489 265.06734628 -296.0625 259 C-288.39940023 243.47731072 -276.69166296 230.24949903 -264.765625 217.87890625 C-262.10174652 215.31700248 -262.10174652 215.31700248 -261.0625 213 C-260.4025 213 -259.7425 213 -259.0625 213 C-258.7325 212.01 -258.4025 211.02 -258.0625 210 C-257.4025 210 -256.7425 210 -256.0625 210 C-255.67384766 209.10667969 -255.67384766 209.10667969 -255.27734375 208.1953125 C-253.96459487 205.82307818 -252.70468073 204.59581691 -250.625 202.875 C-247.25889009 200.03142701 -243.98876736 197.11320369 -240.75 194.125 C-227.16825658 181.77287944 -212.4408527 170.99449738 -197.0625 161 C-197.70580408 157.5484262 -198.55869551 154.23774504 -199.5625 150.875 C-203.21927723 137.40076665 -202.73989515 123.52259269 -196.0625 111 C-189.89194327 101.03755921 -182.40652065 93.48866402 -172.0625 88 C-171.4025 87.34 -170.7425 86.68 -170.0625 86 C-158.73765405 81.51938944 -142.82224655 80.7676988 -131.28515625 85 C-127.13735756 86.86614493 -123.06756954 88.84407959 -119.0625 91 C-118.72629639 90.55309814 -118.39009277 90.10619629 -118.04370117 89.64575195 C-108.50318612 76.99254467 -98.65464104 64.80356551 -87.9375 53.12109375 C-86.06108077 51.07455848 -86.06108077 51.07455848 -84.625 48.97265625 C-82.71060914 46.5557378 -80.4838668 44.90276335 -78.0625 43 C-76.56503655 41.4971789 -75.08666512 39.97516158 -73.625 38.4375 C-67.5709721 32.32973813 -60.92702385 27.16132294 -54.0625 22 C-53.10706299 21.27731934 -53.10706299 21.27731934 -52.13232422 20.54003906 C-13.34367846 -8.714239 -13.34367846 -8.714239 0 0 Z M494.9375 128 C492.16560842 131.21897087 491.9375 132.6935573 491.9375 137 C492.69944107 141.28794494 494.35490512 143.42987759 497.9375 146 C502.58527767 147.24494045 505.71965533 147.39391184 509.9375 145 C513.00763219 142.69740086 513.83762667 141.35954397 514.875 137.625 C514.96042436 132.67038734 513.61512481 129.73753999 510.1875 126.1875 C504.10004171 122.97467479 500.07731874 123.56106563 494.9375 128 Z M-158.0625 130 C-159.59464888 133.06429776 -159.29188548 135.6165642 -159.0625 139 C-157.59815854 142.79006025 -156.35992311 143.82840975 -152.8125 145.875 C-148.58673014 147.14273096 -146.2790185 147.27291125 -142.0625 146 C-139.0772609 143.3289966 -138.17842993 141.42507641 -137.125 137.5625 C-137.03841316 132.62704997 -138.49329968 129.81061575 -141.6875 126.125 C-148.25456576 123.01428464 -153.66294444 124.22558332 -158.0625 130 Z M-154.0625 758 C-156.22126369 762.26217446 -156.28072592 765.21695406 -155 769.8125 C-152.89767422 773.27116499 -151.81196817 774.55134184 -148.0625 776 C-143.09200357 776.53255319 -140.00368438 776.1529475 -136.0625 773 C-133.7540212 770.03195583 -133.57041521 766.7473812 -133.6953125 763.03515625 C-134.39023894 759.18348949 -136.12436638 757.45843833 -139.0625 755 C-144.95841884 752.9732779 -149.5330712 753.4705712 -154.0625 758 Z M491.9375 759 C489.43649339 762.00120793 488.96279333 763.70659734 488.625 767.625 C488.67955069 771.12833537 488.67955069 771.12833537 490.9375 774 C491.5975 774 492.2575 774 492.9375 774 C493.2675 774.99 493.5975 775.98 493.9375 777 C497.39489557 778.72869779 501.15725568 778.48966895 504.9375 778 C507.80779869 776.20606332 509.42881638 775.01736724 510.9375 772 C511.46328787 767.61268812 511.45936747 764.06642483 509.5 760.0625 C503.97739927 755.6174799 497.82114217 754.65731173 491.9375 759 Z " fill="#D10E15" transform="translate(331.0625,50)"/>
<path d="M0 0 C0.33 0 0.66 0 1 0 C1.19401633 1.81181405 1.38004375 3.62448532 1.5625 5.4375 C1.66691406 6.44683594 1.77132813 7.45617187 1.87890625 8.49609375 C1.93884766 9.73552734 1.93884766 9.73552734 2 11 C1.67 11.33 1.34 11.66 1 12 C0.92474061 13.55561158 0.91686599 15.11458068 0.9375 16.671875 C0.94587891 17.64116943 0.95425781 18.61046387 0.96289062 19.60913086 C0.97513672 20.64561768 0.98738281 21.68210449 1 22.75 C1.05769072 31.23119151 0.90718949 39.55989783 0 48 C-0.66 47.67 -1.32 47.34 -2 47 C-2 33.8 -2 20.6 -2 7 C-1.34 7 -0.68 7 0 7 C0 4.69 0 2.38 0 0 Z " fill="#D2191E" transform="translate(338,481)"/>
<path d="M0 0 C0 0.33 0 0.66 0 1 C13.365 1.495 13.365 1.495 27 2 C27 2.33 27 2.66 27 3 C22.16195034 3.02487921 17.32393865 3.04294428 12.48583984 3.05493164 C10.84292959 3.05993363 9.20002373 3.06673733 7.55712891 3.07543945 C5.18390819 3.0876874 2.81074677 3.09326979 0.4375 3.09765625 C-0.64893799 3.10539818 -0.64893799 3.10539818 -1.75732422 3.11329651 C-6.5874339 3.11381759 -11.21690863 2.68027235 -16 2 C-16 1.67 -16 1.34 -16 1 C-10.62915894 0.31798844 -5.41499441 -0.11521265 0 0 Z " fill="#D21F27" transform="translate(495,672)"/>
<path d="M0 0 C0.66 0.66 1.32 1.32 2 2 C-0.60175 2.5568763 -3.20509246 3.09589581 -5.8125 3.625 C-6.91948242 3.86476562 -6.91948242 3.86476562 -8.04882812 4.109375 C-13.66015625 5.2265625 -13.66015625 5.2265625 -17 3 C-11.14383753 0.72260348 -6.30402723 -0.55298484 0 0 Z " fill="#D31A1F" transform="translate(328,48)"/>
<path d="M0 0 C4.49533751 6.74300626 3.15670324 16.28864508 2 24 C1.67 24 1.34 24 1 24 C0.20318916 15.97497656 -0.12867289 8.06350113 0 0 Z " fill="#D11B20" transform="translate(883,804)"/>
<path d="M0 0 C0.85013672 -0.01224609 1.70027344 -0.02449219 2.57617188 -0.03710938 C3.80883789 -0.04000977 3.80883789 -0.04000977 5.06640625 -0.04296875 C5.80963135 -0.04707764 6.55285645 -0.05118652 7.31860352 -0.05541992 C9.72244353 0.22016722 11.34893314 0.99542529 13.4375 2.1875 C11.4575 2.5175 9.4775 2.8475 7.4375 3.1875 C7.4375 2.8575 7.4375 2.5275 7.4375 2.1875 C5.18756641 2.16042861 2.93753905 2.14107171 0.6875 2.125 C-1.19195312 2.10759766 -1.19195312 2.10759766 -3.109375 2.08984375 C-5.88078798 2.16822081 -7.9302274 2.50505896 -10.5625 3.1875 C-12.8125 2.25 -12.8125 2.25 -14.5625 1.1875 C-9.72512894 -0.05412502 -4.95863563 0.00377657 0 0 Z " fill="#D1191E" transform="translate(182.5625,132.8125)"/>
<path d="M0 0 C0 4.07587476 -1.25991672 4.98590839 -4 8 C-6.61285387 10.39844029 -9.28737948 12.71534146 -12 15 C-12.66 14.67 -13.32 14.34 -14 14 C-11.72760204 10.651203 -9.16160112 8.49987065 -6 6 C-3.95422075 4.04106987 -1.98017081 2.0262213 0 0 Z " fill="#D3171B" transform="translate(259,87)"/>
<path d="M0 0 C2 1.375 2 1.375 4 3 C4 3.66 4 4.32 4 5 C4.66 5 5.32 5 6 5 C6.33 6.65 6.66 8.3 7 10 C4.95880212 8.38405168 2.95927063 6.7143618 1 5 C1 4.34 1 3.68 1 3 C-1.31 3.33 -3.62 3.66 -6 4 C-5.67 3.01 -5.34 2.02 -5 1 C-3.35 1.33 -1.7 1.66 0 2 C0 1.34 0 0.68 0 0 Z " fill="#D4181D" transform="translate(200,233)"/>
<path d="M0 0 C2.40826853 3.74619549 2.26721537 7.12729615 2.25 11.5 C2.25515625 12.8096875 2.2603125 14.119375 2.265625 15.46875 C2.02614534 18.65242072 1.69648375 20.36102529 0 23 C-0.38218767 21.34385343 -0.71395102 19.67542976 -1 18 C-0.67 17.67 -0.34 17.34 0 17 C0.07226502 15.14712498 0.0838122 13.29166122 0.0625 11.4375 C0.05347656 10.42558594 0.04445312 9.41367188 0.03515625 8.37109375 C0.02355469 7.58863281 0.01195312 6.80617187 0 6 C-0.99 6.495 -0.99 6.495 -2 7 C-1.34 4.69 -0.68 2.38 0 0 Z " fill="#D3171C" transform="translate(234,173)"/>
<path d="M0 0 C-4.53701494 1.45184478 -8.18061476 2.23509196 -13 2 C-12.67 1.01 -12.34 0.02 -12 -1 C-3.42857143 -2.42857143 -3.42857143 -2.42857143 0 0 Z " fill="#D0171C" transform="translate(50,328)"/>
<path d="M0 0 C0.66 0.99 1.32 1.98 2 3 C-1.32851768 6.01343955 -3.81882813 6.44667544 -8.25 6.6875 C-9.32765625 6.75324219 -10.4053125 6.81898438 -11.515625 6.88671875 C-12.74539062 6.94279297 -12.74539062 6.94279297 -14 7 C-13.67 5.68 -13.34 4.36 -13 3 C-12.67 3.66 -12.34 4.32 -12 5 C-10.55989519 4.74337755 -9.1229313 4.46909179 -7.6875 4.1875 C-6.88699219 4.03667969 -6.08648437 3.88585937 -5.26171875 3.73046875 C-2.76554413 2.92427764 -1.67577894 1.97947998 0 0 Z " fill="#D51F25" transform="translate(195,821)"/>
<path d="M0 0 C0.33 0 0.66 0 1 0 C2.32719886 6.96779403 2.08825381 13.92988911 2 21 C1.67 21 1.34 21 1 21 C0.93941406 20.39671875 0.87882813 19.7934375 0.81640625 19.171875 C0.73261719 18.37265625 0.64882812 17.5734375 0.5625 16.75 C0.48128906 15.96109375 0.40007812 15.1721875 0.31640625 14.359375 C0.059193 12.03419346 0.059193 12.03419346 -0.5625 9.96875 C-1.31790911 6.569409 -0.51251368 3.41675786 0 0 Z " fill="#D7232A" transform="translate(237,804)"/>
<path d="M0 0 C0 0.33 0 0.66 0 1 C-0.9075 1.12375 -1.815 1.2475 -2.75 1.375 C-5.87801553 1.80432631 -5.87801553 1.80432631 -7.9375 3.0625 C-10.95297586 4.43317084 -13.73661871 4.12551466 -17 4 C-12.44630034 -0.55369966 -6.03058046 -0.21159931 0 0 Z " fill="#D4191F" transform="translate(832,133)"/>
<path d="M0 0 C4.8274799 1.41292095 8.7162359 3.42974154 13 6 C8.82412255 7.39195915 6.86525224 5.82323219 3 4 C3 3.34 3 2.68 3 2 C2.01 2.33 1.02 2.66 0 3 C0 2.01 0 1.02 0 0 Z " fill="#D61D21" transform="translate(851,767)"/>
<path d="M0 0 C0.66 0.33 1.32 0.66 2 1 C-1.06544056 4.94128072 -3.49152687 7.6879625 -8 10 C-8.763125 10.391875 -9.52625 10.78375 -10.3125 11.1875 C-10.869375 11.455625 -11.42625 11.72375 -12 12 C-8.39424999 7.41086363 -4.52615993 3.67832017 0 0 Z " fill="#D51D20" transform="translate(769,856)"/>
<path d="M0 0 C2.39254576 0.22560676 4.78928123 0.40848595 7.1875 0.5625 C9.09595703 0.68818359 9.09595703 0.68818359 11.04296875 0.81640625 C12.01878906 0.87699219 12.99460937 0.93757812 14 1 C14 1.33 14 1.66 14 2 C11.27076612 2.0270817 8.54180363 2.04687847 5.8125 2.0625 C5.04357422 2.07087891 4.27464844 2.07925781 3.48242188 2.08789062 C-0.48526789 2.10491934 -4.12571234 1.98604115 -8 1 C-8 0.67 -8 0.34 -8 0 C-4.71303767 -0.79953138 -3.28976808 -1.09658936 0 0 Z " fill="#D41C22" transform="translate(833,236)"/>
<path d="M0 0 C2 3 2 3 2.9375 6.625 C3.288125 7.73875 3.63875 8.8525 4 10 C4.99 10.33 5.98 10.66 7 11 C5.68 11.33 4.36 11.66 3 12 C3 11.34 3 10.68 3 10 C2.34 10 1.68 10 1 10 C-0.60725635 6.78548731 -0.05748185 3.56387464 0 0 Z " fill="#D4181D" transform="translate(822,184)"/>
<path d="M0 0 C0.75 1.5625 0.75 1.5625 1 4 C-0.02332869 6.54719859 -1.27272296 8.86333587 -3 11 C-3.99 11.33 -4.98 11.66 -6 12 C-4.43358249 7.69235185 -2.31663844 3.93828536 0 0 Z " fill="#D4181C" transform="translate(333,608)"/>
<path d="M0 0 C0.33 0 0.66 0 1 0 C1.24915939 1.76813112 1.47366632 3.53974982 1.6875 5.3125 C1.81511719 6.29863281 1.94273437 7.28476562 2.07421875 8.30078125 C2 11 2 11 0.51953125 12.85546875 C0.01808594 13.23316406 -0.48335938 13.61085938 -1 14 C-1.33 11.69 -1.66 9.38 -2 7 C-1.34 7 -0.68 7 0 7 C0 4.69 0 2.38 0 0 Z " fill="#D32128" transform="translate(338,481)"/>
<path d="M0 0 C0.33 0 0.66 0 1 0 C1.8320582 5.72040011 2.12036664 11.22240116 2 17 C-0.42472438 14.48177725 -0.99254989 13.32466794 -1.07421875 9.765625 C-0.94660156 8.60546875 -0.81898438 7.4453125 -0.6875 6.25 C-0.56761719 5.07953125 -0.44773437 3.9090625 -0.32421875 2.703125 C-0.21722656 1.81109375 -0.11023438 0.9190625 0 0 Z " fill="#D12025" transform="translate(673,479)"/>
<path d="M0 0 C0.598125 0.350625 1.19625 0.70125 1.8125 1.0625 C1.8125 1.7225 1.8125 2.3825 1.8125 3.0625 C2.8025 2.7325 3.7925 2.4025 4.8125 2.0625 C5.1425 3.0525 5.4725 4.0425 5.8125 5.0625 C4.35182801 4.61167531 2.89401968 4.15156463 1.4375 3.6875 C0.62539063 3.43226563 -0.18671875 3.17703125 -1.0234375 2.9140625 C-3.1875 2.0625 -3.1875 2.0625 -5.1875 0.0625 C-2.1875 -0.9375 -2.1875 -0.9375 0 0 Z " fill="#D41A1F" transform="translate(429.1875,655.9375)"/>
<path d="M0 0 C-1.8125 1.0625 -1.8125 1.0625 -4 2 C-4.99 1.67 -5.98 1.34 -7 1 C-7 1.66 -7 2.32 -7 3 C-9.97 2.505 -9.97 2.505 -13 2 C-8.25713263 -0.5408218 -5.30009266 -1.32502317 0 0 Z " fill="#D41B20" transform="translate(474,344)"/>
<path d="M0 0 C2.625 -0.1875 2.625 -0.1875 5 0 C5 0.99 5 1.98 5 3 C3.68 3 2.36 3 1 3 C-1.26877535 5.41880929 -1.26877535 5.41880929 -3 8 C-2.45276317 4.62537285 -1.9451 2.91765 0 0 Z " fill="#D3171C" transform="translate(805,862)"/>
<path d="M0 0 C0.66 0.33 1.32 0.66 2 1 C2 1.66 2 2.32 2 3 C0.71211992 3.53012738 -0.58046678 4.0488329 -1.875 4.5625 C-2.95394531 4.99755859 -2.95394531 4.99755859 -4.0546875 5.44140625 C-6 6 -6 6 -8 5 C-6.71475739 4.13619741 -5.42157581 3.28419631 -4.125 2.4375 C-3.04605469 1.72400391 -3.04605469 1.72400391 -1.9453125 0.99609375 C-1.30335938 0.66738281 -0.66140625 0.33867187 0 0 Z " fill="#D5181C" transform="translate(606,350)"/>
<path d="M0 0 C8.57142857 0.85714286 8.57142857 0.85714286 12 3 C5.25 4.125 5.25 4.125 3 3 C2.01 2.67 1.02 2.34 0 2 C0 1.34 0 0.68 0 0 Z " fill="#D61D22" transform="translate(536,343)"/>
<path d="M0 0 C2.66666667 2.66666667 5.33333333 5.33333333 8 8 C7.67 8.66 7.34 9.32 7 10 C5.82174642 9.09827532 4.65768423 8.17798498 3.5 7.25 C2.8503125 6.73953125 2.200625 6.2290625 1.53125 5.703125 C0 4 0 4 0 0 Z " fill="#D2191E" transform="translate(744,704)"/>
<path d="M0 0 C1.31611677 0.95336021 2.62778961 1.91285774 3.9375 2.875 C4.66839844 3.40867188 5.39929688 3.94234375 6.15234375 4.4921875 C8 6 8 6 9 8 C2.18181818 6.03030303 2.18181818 6.03030303 0 3 C0 2.01 0 1.02 0 0 Z " fill="#D2171C" transform="translate(281,246)"/>
<path d="M0 0 C1.43836751 0.11458693 2.87570966 0.24209116 4.3125 0.375 C5.51326172 0.47941406 5.51326172 0.47941406 6.73828125 0.5859375 C9 1 9 1 12 3 C8.94736336 3.98120464 7.05263664 3.98120464 4 3 C4 2.34 4 1.68 4 1 C2.68 0.67 1.36 0.34 0 0 Z " fill="#D5191E" transform="translate(838,764)"/>
<path d="M0 0 C0.33 1.32 0.66 2.64 1 4 C-1.375 5.5625 -1.375 5.5625 -4 7 C-4.66 6.67 -5.32 6.34 -6 6 C-4.02 4.02 -2.04 2.04 0 0 Z " fill="#D51A1F" transform="translate(229,745)"/>
<path d="M0 0 C2.53910197 0.38520564 3.72751123 0.70097943 5.484375 2.62890625 C5.90203125 3.26699219 6.3196875 3.90507812 6.75 4.5625 C7.17796875 5.20316406 7.6059375 5.84382813 8.046875 6.50390625 C8.36140625 6.99761719 8.6759375 7.49132812 9 8 C4.7257442 6.4169423 2.73468206 3.49431596 0 0 Z " fill="#D2171C" transform="translate(908,276)"/>
<path d="M0 0 C6.70212766 1.93617021 6.70212766 1.93617021 9 5 C9 5.66 9 6.32 9 7 C5.18315774 5.44499019 2.80804268 2.96404505 0 0 Z " fill="#D4161A" transform="translate(898,268)"/>
<path d="M0 0 C0.66 0.33 1.32 0.66 2 1 C0.02 3.97 0.02 3.97 -2 7 C-2.99 6.67 -3.98 6.34 -5 6 C-3.35 4.02 -1.7 2.04 0 0 Z " fill="#D5161B" transform="translate(88,246)"/>
<path d="M0 0 C2.31 1.98 4.62 3.96 7 6 C6.01 6.66 5.02 7.32 4 8 C2 6.25 2 6.25 0 4 C0 2.68 0 1.36 0 0 Z " fill="#D5171D" transform="translate(820,821)"/>
<path d="M0 0 C2.97 0.99 5.94 1.98 9 3 C8.01 3.66 7.02 4.32 6 5 C3.375 4.3125 3.375 4.3125 1 3 C0.67 2.01 0.34 1.02 0 0 Z " fill="#D6171B" transform="translate(198,764)"/>
<path d="M0 0 C0.33 0.99 0.66 1.98 1 3 C-1.3125 5.5 -1.3125 5.5 -4 8 C-4.99 8 -5.98 8 -7 8 C-4.69 5.36 -2.38 2.72 0 0 Z " fill="#D6161B" transform="translate(249,723)"/>
<path d="M0 0 C0.33 0 0.66 0 1 0 C1 2.97 1 5.94 1 9 C0.34 9 -0.32 9 -1 9 C-1.33 9.66 -1.66 10.32 -2 11 C-1.125 3.375 -1.125 3.375 0 0 Z " fill="#D41A1E" transform="translate(344,455)"/>
<path d="M0 0 C-3.53411321 2.12046792 -6.94393835 2.53199289 -11 3 C-6.7849044 -0.23157329 -5.27490657 -1.24931998 0 0 Z " fill="#D4161A" transform="translate(601,357)"/>
<path d="M0 0 C0.556875 0.226875 1.11375 0.45375 1.6875 0.6875 C-5.0625 4.6875 -5.0625 4.6875 -7.3125 4.6875 C-7.3125 4.0275 -7.3125 3.3675 -7.3125 2.6875 C-3.15982824 -0.42700382 -3.15982824 -0.42700382 0 0 Z " fill="#CD161B" transform="translate(723.3125,952.3125)"/>
<path d="M0 0 C0.99 0 1.98 0 3 0 C2.01 2.97 1.02 5.94 0 9 C-0.66 8.01 -1.32 7.02 -2 6 C-1.67 5.38125 -1.34 4.7625 -1 4.125 C0.14193235 2.08981656 0.14193235 2.08981656 0 0 Z " fill="#D3181E" transform="translate(234,831)"/>
<path d="M0 0 C-2.62198774 2.15377564 -4.64404172 3.40072174 -8 4 C-7 1 -7 1 -5.125 -0.25 C-3 -1 -3 -1 0 0 Z " fill="#D5161A" transform="translate(581,657)"/>
<path d="M0 0 C-0.33 2.31 -0.66 4.62 -1 7 C-1.99 7.33 -2.98 7.66 -4 8 C-3.74438677 5.6568787 -3.40729228 3.32156597 -3 1 C-1 0 -1 0 0 0 Z " fill="#D3171C" transform="translate(355,431)"/>
<path d="M0 0 C0.99 0.33 1.98 0.66 3 1 C-0.465 3.97 -0.465 3.97 -4 7 C-3.04065919 3.16263678 -2.76390737 2.40339772 0 0 Z " fill="#D1181C" transform="translate(112,279)"/>
<path d="M0 0 C0.33 1.32 0.66 2.64 1 4 C-1.31 5.65 -3.62 7.3 -6 9 C-4.47291037 5.56404834 -2.40072955 2.88087546 0 0 Z " fill="#D4181C" transform="translate(233,114)"/>
<path d="M0 0 C0.99 0 1.98 0 3 0 C3.625 2.875 3.625 2.875 4 6 C3.34 6.66 2.68 7.32 2 8 C0.74335022 5.09399739 0 3.20395416 0 0 Z " fill="#D2191F" transform="translate(780,830)"/>
<path d="M0 0 C2.64 0.33 5.28 0.66 8 1 C8 1.33 8 1.66 8 2 C3.9472484 2.98248524 0.16138263 3.08159574 -4 3 C-2.68 2.67 -1.36 2.34 0 2 C0 1.34 0 0.68 0 0 Z " fill="#D31E24" transform="translate(528,671)"/>
<path d="M0 0 C2.97 0.99 5.94 1.98 9 3 C8.01 3.66 7.02 4.32 6 5 C6 4.34 6 3.68 6 3 C5.01 3.33 4.02 3.66 3 4 C2.01 3.34 1.02 2.68 0 2 C0 1.34 0 0.68 0 0 Z " fill="#D5191C" transform="translate(565,351)"/>
<path d="M0 0 C0.598125 0.20625 1.19625 0.4125 1.8125 0.625 C-3.9375 4.625 -3.9375 4.625 -6.1875 4.625 C-5.03076352 1.15479057 -3.91311293 -0.67081936 0 0 Z " fill="#D2181B" transform="translate(67.1875,317.375)"/>
<path d="" fill="#CE232B" transform="translate(0,0)"/>
<path d="M0 0 C2 1 2 1 2 1 Z " fill="#C92227" transform="translate(836,871)"/>
<path d="M0 0 C2 1 2 1 2 1 Z " fill="#CC2128" transform="translate(828,871)"/>
<path d="M0 0 C2 1 2 1 2 1 Z " fill="#CF232A" transform="translate(185,869)"/>
<path d="M0 0 C2 1 2 1 2 1 Z " fill="#C82127" transform="translate(136,840)"/>
<path d="M0 0 C2 1 2 1 2 1 Z " fill="#D12027" transform="translate(890,789)"/>
<path d="M0 0 C2 1 2 1 2 1 Z " fill="#C92930" transform="translate(951,680)"/>
<path d="" fill="#CE2229" transform="translate(0,0)"/>
<path d="" fill="#CD2228" transform="translate(0,0)"/>
<path d="" fill="#CF2129" transform="translate(0,0)"/>
<path d="M0 0 C2 1 2 1 2 1 Z " fill="#CC2429" transform="translate(648,320)"/>
<path d="M0 0 C2 1 2 1 2 1 Z " fill="#CC242B" transform="translate(728,256)"/>
<path d="M0 0 C2 1 2 1 2 1 Z " fill="#D11E22" transform="translate(190,239)"/>
<path d="" fill="#D02029" transform="translate(0,0)"/>
<path d="M0 0 C2 1 2 1 2 1 Z " fill="#C62930" transform="translate(296,56)"/>
<path d="" fill="#B92930" transform="translate(0,0)"/>
<path d="" fill="#C7292F" transform="translate(0,0)"/>
<path d="" fill="#C9262D" transform="translate(0,0)"/>
<path d="" fill="#C9262E" transform="translate(0,0)"/>
<path d="" fill="#CC272E" transform="translate(0,0)"/>
<path d="" fill="#CB282F" transform="translate(0,0)"/>
<path d="" fill="#D0232A" transform="translate(0,0)"/>
<path d="" fill="#CB212A" transform="translate(0,0)"/>
<path d="" fill="#D0232A" transform="translate(0,0)"/>
<path d="" fill="#CB242A" transform="translate(0,0)"/>
<path d="" fill="#D02129" transform="translate(0,0)"/>
<path d="" fill="#CB2229" transform="translate(0,0)"/>
<path d="" fill="#D3232A" transform="translate(0,0)"/>
<path d="" fill="#C92129" transform="translate(0,0)"/>
<path d="" fill="#D01E26" transform="translate(0,0)"/>
<path d="" fill="#D1232A" transform="translate(0,0)"/>
<path d="" fill="#CE2026" transform="translate(0,0)"/>
<path d="" fill="#CD1F24" transform="translate(0,0)"/>
<path d="" fill="#D12129" transform="translate(0,0)"/>
<path d="" fill="#CD2127" transform="translate(0,0)"/>
<path d="" fill="#D42329" transform="translate(0,0)"/>
<path d="" fill="#D2262A" transform="translate(0,0)"/>
<path d="" fill="#C92025" transform="translate(0,0)"/>
<path d="" fill="#CD2226" transform="translate(0,0)"/>
<path d="" fill="#C91F26" transform="translate(0,0)"/>
<path d="" fill="#CA2127" transform="translate(0,0)"/>
<path d="" fill="#C91F28" transform="translate(0,0)"/>
<path d="" fill="#C11F27" transform="translate(0,0)"/>
<path d="" fill="#C82128" transform="translate(0,0)"/>
<path d="" fill="#CA2229" transform="translate(0,0)"/>
<path d="" fill="#D3242B" transform="translate(0,0)"/>
<path d="" fill="#C91E25" transform="translate(0,0)"/>
<path d="" fill="#D5232A" transform="translate(0,0)"/>
<path d="" fill="#C92229" transform="translate(0,0)"/>
<path d="" fill="#D5222A" transform="translate(0,0)"/>
<path d="" fill="#D6212C" transform="translate(0,0)"/>
<path d="" fill="#D41E28" transform="translate(0,0)"/>
<path d="" fill="#D0212A" transform="translate(0,0)"/>
<path d="" fill="#D22026" transform="translate(0,0)"/>
<path d="" fill="#D4232A" transform="translate(0,0)"/>
<path d="" fill="#D5282E" transform="translate(0,0)"/>
<path d="" fill="#D12029" transform="translate(0,0)"/>
<path d="" fill="#D02326" transform="translate(0,0)"/>
<path d="" fill="#D7242A" transform="translate(0,0)"/>
<path d="" fill="#D12529" transform="translate(0,0)"/>
<path d="" fill="#CF2429" transform="translate(0,0)"/>
<path d="" fill="#D6252A" transform="translate(0,0)"/>
<path d="" fill="#D32229" transform="translate(0,0)"/>
<path d="" fill="#D3242C" transform="translate(0,0)"/>
<path d="" fill="#D6272E" transform="translate(0,0)"/>
<path d="" fill="#D62228" transform="translate(0,0)"/>
<path d="" fill="#D6252B" transform="translate(0,0)"/>
<path d="" fill="#D4252B" transform="translate(0,0)"/>
<path d="" fill="#CF2327" transform="translate(0,0)"/>
<path d="" fill="#D2242B" transform="translate(0,0)"/>
<path d="" fill="#CE252B" transform="translate(0,0)"/>
<path d="" fill="#CF262E" transform="translate(0,0)"/>
<path d="" fill="#CB262D" transform="translate(0,0)"/>
<path d="" fill="#CD252B" transform="translate(0,0)"/>
<path d="" fill="#CD2428" transform="translate(0,0)"/>
<path d="" fill="#D2282D" transform="translate(0,0)"/>
<path d="" fill="#CF2328" transform="translate(0,0)"/>
<path d="" fill="#D0262D" transform="translate(0,0)"/>
<path d="" fill="#D0222A" transform="translate(0,0)"/>
<path d="" fill="#CF272E" transform="translate(0,0)"/>
<path d="" fill="#C82B31" transform="translate(0,0)"/>
<path d="" fill="#CE2127" transform="translate(0,0)"/>
<path d="" fill="#D12227" transform="translate(0,0)"/>
<path d="" fill="#D0262E" transform="translate(0,0)"/>
<path d="" fill="#CB242C" transform="translate(0,0)"/>
<path d="" fill="#C73035" transform="translate(0,0)"/>
<path d="" fill="#CB2830" transform="translate(0,0)"/>
<path d="" fill="#CD222B" transform="translate(0,0)"/>
<path d="" fill="#D02229" transform="translate(0,0)"/>
<path d="" fill="#CC2B34" transform="translate(0,0)"/>
<path d="" fill="#C82D32" transform="translate(0,0)"/>
<path d="" fill="#CA2830" transform="translate(0,0)"/>
<path d="" fill="#C32934" transform="translate(0,0)"/>
<path d="" fill="#C62E33" transform="translate(0,0)"/>
<path d="" fill="#C52B33" transform="translate(0,0)"/>
<path d="" fill="#CF2027" transform="translate(0,0)"/>
<path d="" fill="#D11F26" transform="translate(0,0)"/>
<path d="" fill="#D12228" transform="translate(0,0)"/>
<path d="" fill="#D3272E" transform="translate(0,0)"/>
<path d="" fill="#D0212A" transform="translate(0,0)"/>
<path d="" fill="#CB252B" transform="translate(0,0)"/>
<path d="" fill="#CE2127" transform="translate(0,0)"/>
<path d="" fill="#CD232A" transform="translate(0,0)"/>
<path d="" fill="#CC232C" transform="translate(0,0)"/>
<path d="" fill="#CB252C" transform="translate(0,0)"/>
<path d="" fill="#D0252B" transform="translate(0,0)"/>
<path d="" fill="#CD262B" transform="translate(0,0)"/>
<path d="" fill="#CE252B" transform="translate(0,0)"/>
<path d="" fill="#D0212D" transform="translate(0,0)"/>
<path d="" fill="#CD252D" transform="translate(0,0)"/>
<path d="" fill="#CB212A" transform="translate(0,0)"/>
<path d="" fill="#CE1E27" transform="translate(0,0)"/>
<path d="" fill="#CE2129" transform="translate(0,0)"/>
<path d="" fill="#D1232B" transform="translate(0,0)"/>
<path d="" fill="#D1232B" transform="translate(0,0)"/>
<path d="" fill="#CB2027" transform="translate(0,0)"/>
<path d="" fill="#C82229" transform="translate(0,0)"/>
<path d="" fill="#CB1F2A" transform="translate(0,0)"/>
<path d="" fill="#CC242A" transform="translate(0,0)"/>
<path d="" fill="#CC252D" transform="translate(0,0)"/>
<path d="" fill="#D1252C" transform="translate(0,0)"/>
<path d="" fill="#D12429" transform="translate(0,0)"/>
<path d="" fill="#D32127" transform="translate(0,0)"/>
<path d="" fill="#D1242A" transform="translate(0,0)"/>
<path d="" fill="#CE2027" transform="translate(0,0)"/>
<path d="" fill="#D12026" transform="translate(0,0)"/>
<path d="" fill="#CD232A" transform="translate(0,0)"/>
<path d="" fill="#D22127" transform="translate(0,0)"/>
<path d="" fill="#CD2027" transform="translate(0,0)"/>
<path d="" fill="#D12329" transform="translate(0,0)"/>
<path d="" fill="#D12226" transform="translate(0,0)"/>
<path d="" fill="#D1242A" transform="translate(0,0)"/>
<path d="" fill="#D0242B" transform="translate(0,0)"/>
<path d="" fill="#CE232A" transform="translate(0,0)"/>
<path d="" fill="#D02129" transform="translate(0,0)"/>
<path d="" fill="#D12429" transform="translate(0,0)"/>
<path d="" fill="#D12429" transform="translate(0,0)"/>
<path d="" fill="#D22429" transform="translate(0,0)"/>
<path d="" fill="#CF242B" transform="translate(0,0)"/>
<path d="" fill="#CA2328" transform="translate(0,0)"/>
<path d="" fill="#CE1F24" transform="translate(0,0)"/>
<path d="" fill="#D22028" transform="translate(0,0)"/>
<path d="" fill="#CD2329" transform="translate(0,0)"/>
<path d="" fill="#CB2227" transform="translate(0,0)"/>
<path d="" fill="#D12229" transform="translate(0,0)"/>
<path d="" fill="#D62D31" transform="translate(0,0)"/>
<path d="" fill="#C3292F" transform="translate(0,0)"/>
<path d="" fill="#CA2930" transform="translate(0,0)"/>
<path d="" fill="#CB2A2E" transform="translate(0,0)"/>
<path d="" fill="#D42B2F" transform="translate(0,0)"/>
<path d="" fill="#C62731" transform="translate(0,0)"/>
<path d="" fill="#CA292F" transform="translate(0,0)"/>
<path d="" fill="#CC292F" transform="translate(0,0)"/>
<path d="" fill="#D11F27" transform="translate(0,0)"/>
<path d="" fill="#CB232B" transform="translate(0,0)"/>
<path d="" fill="#C52C34" transform="translate(0,0)"/>
<path d="" fill="#CF2329" transform="translate(0,0)"/>
<path d="" fill="#CE222A" transform="translate(0,0)"/>
<path d="" fill="#D02529" transform="translate(0,0)"/>
<path d="" fill="#CB2B35" transform="translate(0,0)"/>
<path d="" fill="#D0232B" transform="translate(0,0)"/>
<path d="" fill="#CF2A33" transform="translate(0,0)"/>
<path d="" fill="#CF262C" transform="translate(0,0)"/>
<path d="" fill="#CE242A" transform="translate(0,0)"/>
<path d="" fill="#D3252A" transform="translate(0,0)"/>
<path d="" fill="#CC222C" transform="translate(0,0)"/>
<path d="" fill="#CE2127" transform="translate(0,0)"/>
<path d="" fill="#D1242C" transform="translate(0,0)"/>
<path d="" fill="#CD272E" transform="translate(0,0)"/>
<path d="" fill="#D5272F" transform="translate(0,0)"/>
<path d="" fill="#D42129" transform="translate(0,0)"/>
<path d="" fill="#D72327" transform="translate(0,0)"/>
<path d="" fill="#CF232A" transform="translate(0,0)"/>
<path d="" fill="#D1262D" transform="translate(0,0)"/>
<path d="" fill="#D62227" transform="translate(0,0)"/>
<path d="" fill="#D32229" transform="translate(0,0)"/>
<path d="" fill="#D3222A" transform="translate(0,0)"/>
<path d="" fill="#D62229" transform="translate(0,0)"/>
<path d="" fill="#CE2228" transform="translate(0,0)"/>
<path d="" fill="#D1242A" transform="translate(0,0)"/>
<path d="" fill="#D1262A" transform="translate(0,0)"/>
<path d="" fill="#D4242A" transform="translate(0,0)"/>
<path d="" fill="#D6242A" transform="translate(0,0)"/>
<path d="" fill="#D12327" transform="translate(0,0)"/>
<path d="" fill="#CE232B" transform="translate(0,0)"/>
<path d="" fill="#D32229" transform="translate(0,0)"/>
<path d="" fill="#D3252C" transform="translate(0,0)"/>
<path d="" fill="#D32129" transform="translate(0,0)"/>
<path d="" fill="#D72428" transform="translate(0,0)"/>
<path d="" fill="#D2252C" transform="translate(0,0)"/>
<path d="" fill="#CE2229" transform="translate(0,0)"/>
<path d="" fill="#D5242A" transform="translate(0,0)"/>
<path d="" fill="#D22228" transform="translate(0,0)"/>
<path d="" fill="#D4242B" transform="translate(0,0)"/>
<path d="" fill="#D42228" transform="translate(0,0)"/>
<path d="" fill="#D9282E" transform="translate(0,0)"/>
<path d="" fill="#CF262E" transform="translate(0,0)"/>
<path d="" fill="#D52229" transform="translate(0,0)"/>
<path d="" fill="#D7242B" transform="translate(0,0)"/>
<path d="" fill="#D61E25" transform="translate(0,0)"/>
<path d="" fill="#D82129" transform="translate(0,0)"/>
<path d="" fill="#C71E25" transform="translate(0,0)"/>
<path d="" fill="#C82127" transform="translate(0,0)"/>
<path d="" fill="#C62126" transform="translate(0,0)"/>
<path d="" fill="#C71F26" transform="translate(0,0)"/>
<path d="" fill="#C92326" transform="translate(0,0)"/>
<path d="" fill="#D52027" transform="translate(0,0)"/>
<path d="" fill="#C52028" transform="translate(0,0)"/>
<path d="" fill="#D2242C" transform="translate(0,0)"/>
<path d="" fill="#D5232A" transform="translate(0,0)"/>
<path d="" fill="#D5242C" transform="translate(0,0)"/>
<path d="" fill="#D32227" transform="translate(0,0)"/>
<path d="" fill="#D12328" transform="translate(0,0)"/>
<path d="" fill="#D2242C" transform="translate(0,0)"/>
<path d="" fill="#CE2328" transform="translate(0,0)"/>
<path d="" fill="#CC2328" transform="translate(0,0)"/>
<path d="" fill="#C92830" transform="translate(0,0)"/>
<path d="" fill="#CA272E" transform="translate(0,0)"/>
<path d="" fill="#CB2229" transform="translate(0,0)"/>
<path d="" fill="#CE272C" transform="translate(0,0)"/>
<path d="" fill="#C1242B" transform="translate(0,0)"/>
<path d="" fill="#CB282F" transform="translate(0,0)"/>
<path d="" fill="#C5252E" transform="translate(0,0)"/>
<path d="" fill="#CC262F" transform="translate(0,0)"/>
<path d="" fill="#CD272D" transform="translate(0,0)"/>
<path d="" fill="#C1252B" transform="translate(0,0)"/>
<path d="" fill="#CC292F" transform="translate(0,0)"/>
<path d="" fill="#CC2A30" transform="translate(0,0)"/>
<path d="" fill="#C62A31" transform="translate(0,0)"/>
<path d="" fill="#BE2A31" transform="translate(0,0)"/>
<path d="" fill="#C5282F" transform="translate(0,0)"/>
</svg>
